<svg width="56" height="56" viewBox="0 0 56 56" fill="none" xmlns="http://www.w3.org/2000/svg">
<rect width="56" height="56" rx="28" fill="#4EBDF5"/>
<path d="M32 18H24C21.24 18 19 20.24 19 23V33C19 35.76 21.24 38 24 38H32C34.76 38 37 35.76 37 33V23C37 20.24 34.76 18 32 18ZM24.86 34.63C24.67 34.82 24.42 34.92 24.16 34.92C23.89 34.92 23.64 34.82 23.45 34.63C23.26 34.44 23.15 34.19 23.15 33.92C23.15 33.66 23.26 33.4 23.45 33.21C23.54 33.12 23.65 33.05 23.77 33C24.02 32.9 24.29 32.9 24.54 33C24.6 33.02 24.66 33.05 24.71 33.09C24.77 33.12 24.82 33.17 24.86 33.21C25.05 33.4 25.16 33.66 25.16 33.92C25.16 34.19 25.05 34.44 24.86 34.63ZM23.15 29.92C23.15 29.79 23.18 29.66 23.23 29.54C23.28 29.41 23.35 29.31 23.45 29.21C23.68 28.98 24.03 28.87 24.35 28.94C24.41 28.95 24.48 28.97 24.54 29C24.6 29.02 24.66 29.05 24.71 29.09C24.77 29.12 24.82 29.17 24.86 29.21C24.95 29.31 25.03 29.41 25.08 29.54C25.13 29.66 25.15 29.79 25.15 29.92C25.15 30.19 25.05 30.44 24.86 30.63C24.67 30.82 24.42 30.92 24.16 30.92C24.02 30.92 23.89 30.89 23.77 30.84C23.65 30.79 23.54 30.72 23.45 30.63C23.26 30.44 23.15 30.19 23.15 29.92ZM28.86 34.63C28.77 34.72 28.66 34.79 28.54 34.84C28.42 34.89 28.29 34.92 28.15 34.92C27.89 34.92 27.64 34.82 27.45 34.63C27.26 34.44 27.15 34.19 27.15 33.92C27.15 33.85 27.16 33.79 27.17 33.72C27.19 33.66 27.21 33.6 27.23 33.54C27.26 33.48 27.29 33.42 27.32 33.36C27.36 33.31 27.4 33.26 27.45 33.21C27.54 33.12 27.65 33.05 27.77 33C28.14 32.85 28.58 32.93 28.86 33.21C29.05 33.4 29.15 33.66 29.15 33.92C29.15 34.19 29.05 34.44 28.86 34.63ZM28.86 30.63C28.67 30.82 28.42 30.92 28.15 30.92C27.89 30.92 27.64 30.82 27.45 30.63C27.26 30.44 27.15 30.19 27.15 29.92C27.15 29.66 27.26 29.4 27.45 29.21C27.82 28.84 28.49 28.84 28.86 29.21C28.95 29.31 29.03 29.41 29.08 29.54C29.13 29.66 29.15 29.79 29.15 29.92C29.15 30.19 29.05 30.44 28.86 30.63ZM25 26.46C23.97 26.46 23.12 25.62 23.12 24.58V23.58C23.12 22.55 23.96 21.7 25 21.7H31C32.03 21.7 32.88 22.54 32.88 23.58V24.58C32.88 25.61 32.04 26.46 31 26.46H25ZM32.86 34.63C32.67 34.82 32.42 34.92 32.15 34.92C32.02 34.92 31.89 34.89 31.77 34.84C31.65 34.79 31.54 34.72 31.45 34.63C31.26 34.44 31.16 34.19 31.16 33.92C31.16 33.66 31.26 33.4 31.45 33.21C31.72 32.93 32.17 32.85 32.54 33C32.66 33.05 32.77 33.12 32.86 33.21C33.05 33.4 33.15 33.66 33.15 33.92C33.15 34.19 33.05 34.44 32.86 34.63ZM33.08 30.3C33.03 30.42 32.96 30.53 32.86 30.63C32.67 30.82 32.42 30.92 32.15 30.92C31.89 30.92 31.64 30.82 31.45 30.63C31.26 30.44 31.15 30.19 31.15 29.92C31.15 29.66 31.26 29.4 31.45 29.21C31.82 28.84 32.49 28.84 32.86 29.21C33.05 29.4 33.16 29.66 33.16 29.92C33.16 30.05 33.13 30.18 33.08 30.3Z" fill="white"/>
</svg>
