<svg width="58" height="32" viewBox="0 0 58 32" fill="none" xmlns="http://www.w3.org/2000/svg">
<g clip-path="url(#clip0_4002_3586)">
<path fill-rule="evenodd" clip-rule="evenodd" d="M40.4427 31.8215L41.3343 31.7988L42.2135 31.7394L43.0774 31.6374L43.935 31.4987L44.768 31.3231L45.5887 31.1079L46.3939 30.8587L47.1806 30.5755L47.9488 30.2526L48.6954 29.9072L49.4173 29.522L50.1207 29.1086L50.7963 28.664L51.4504 28.1939L52.0797 27.6955L52.6782 27.1688L53.2551 26.6165L53.7981 26.0388L54.3103 25.4385L54.7946 24.8183L55.242 24.1726L55.6615 23.51L56.041 22.8247L56.3927 22.1196L56.7012 21.3974L56.9727 20.6583L57.2072 19.905L57.3984 19.1404L57.5496 18.3532L57.6607 17.5631L57.7255 16.7532L57.7501 15.9348L57.7255 15.122L57.6607 14.3206L57.5496 13.5305L57.3984 12.7546L57.2072 11.99L56.9727 11.2396L56.7012 10.5033L56.3927 9.78681L56.041 9.08451L55.6615 8.3992L55.242 7.74221L54.7946 7.09654L54.3103 6.47354L53.7981 5.88168L53.2551 5.30398L52.6782 4.75177L52.0797 4.22787L51.4504 3.7323L50.7963 3.25938L50.1207 2.81761L49.4173 2.40416L48.6954 2.02469L47.9488 1.67637L47.1806 1.35637L46.3939 1.07318L45.5887 0.821149L44.768 0.608759L43.935 0.430352L43.0774 0.29159L42.2135 0.189643L41.3343 0.133007L40.4427 0.110352L39.5573 0.133007L38.678 0.189643L37.8173 0.29159L36.9658 0.430352L36.1328 0.608759L35.3091 0.821149L34.5131 1.07318L33.7264 1.35637L32.9613 1.67637L32.224 2.02469L31.499 2.40416L30.8017 2.81761L30.1261 3.25938L29.4721 3.7323L28.8489 4.22787L28.2473 4.75177L27.6765 5.30398L27.1366 5.88168L26.6245 6.47354L26.1463 7.09654L25.6959 7.74221L25.2825 8.3992L24.8999 9.08451L24.5544 9.78681L24.2459 10.5033L23.9775 11.2396L23.7461 11.99L23.5517 12.7546L23.4006 13.5305L23.2895 14.3206L23.2278 15.122L23.2031 15.9348L23.2278 16.7532L23.2895 17.5631L23.4006 18.3532L23.5517 19.1404L23.7461 19.905L23.9775 20.6583L24.2459 21.3974L24.5544 22.1196L24.8999 22.8247L25.2825 23.51L25.6959 24.1726L26.1463 24.8183L26.6245 25.4385L27.1366 26.0388L27.6765 26.6165L28.2473 27.1688L28.8489 27.6955L29.4721 28.1939L30.1261 28.664L30.8017 29.1086L31.499 29.522L32.224 29.9072L32.9613 30.2526L33.7264 30.5755L34.5131 30.8587L35.3091 31.1079L36.1328 31.3231L36.9658 31.4987L37.8173 31.6374L38.678 31.7394L39.5573 31.7988L40.4427 31.8215Z" fill="#FAB51D"/>
<path fill-rule="evenodd" clip-rule="evenodd" d="M17.3352 31.8215L18.2207 31.7988L19.0999 31.7394L19.9638 31.6374L20.8152 31.4987L21.6482 31.3231L22.4689 31.1079L23.2679 30.8587L24.0546 30.5755L24.8166 30.2526L25.5571 29.9072L26.279 29.522L26.9793 29.1086L27.6549 28.664L28.3059 28.1939L28.9291 27.6955L29.5307 27.1688L30.1014 26.6165L30.6444 26.0388L31.1565 25.4385L31.6347 24.8183L32.0821 24.1726L32.4955 23.51L32.8811 22.8247L33.2235 22.1196L33.5351 21.3974L33.8005 20.6583L34.0349 19.905L34.2262 19.1404L34.3774 18.3532L34.4884 17.5631L34.5532 16.7532L34.5779 15.9348L34.5532 15.122L34.4884 14.3206L34.3774 13.5305L34.2262 12.7546L34.0349 11.99L33.8005 11.2396L33.5351 10.5033L33.2235 9.78681L32.8811 9.08451L32.4955 8.3992L32.0821 7.74221L31.6347 7.09654L31.1565 6.47354L30.6444 5.88168L30.1014 5.30398L29.5307 4.75177L28.9291 4.22787L28.3059 3.7323L27.6549 3.25938L26.9793 2.81761L26.279 2.40416L25.5571 2.02469L24.8166 1.67637L24.0546 1.35637L23.2679 1.07318L22.4689 0.821149L21.6482 0.608759L20.8152 0.430352L19.9638 0.29159L19.0999 0.189643L18.2207 0.133007L17.3352 0.110352L16.4436 0.133007L15.5644 0.189643L14.7006 0.29159L13.846 0.430352L13.013 0.608759L12.1893 0.821149L11.3872 1.07318L10.6005 1.35637L9.83226 1.67637L9.08567 2.02469L8.36376 2.40416L7.65727 2.81761L6.98163 3.25938L6.33067 3.7323L5.69822 4.22787L5.09971 4.75177L4.5228 5.30398L3.97982 5.88168L3.46769 6.47354L2.98333 7.09654L2.53599 7.74221L2.11641 8.3992L1.73695 9.08451L1.38833 9.78681L1.07982 10.5033L0.805244 11.2396L0.573861 11.99L0.379498 12.7546L0.22833 13.5305L0.117266 14.3206L0.0524771 15.122L0.0308838 15.9348L0.0524771 16.7532L0.117266 17.5631L0.22833 18.3532L0.379498 19.1404L0.573861 19.905L0.805244 20.6583L1.07982 21.3974L1.38833 22.1196L1.73695 22.8247L2.11641 23.51L2.53599 24.1726L2.98333 24.8183L3.46769 25.4385L3.97982 26.0388L4.5228 26.6165L5.09971 27.1688L5.69822 27.6955L6.33067 28.1939L6.98163 28.664L7.65727 29.1086L8.36376 29.522L9.08567 29.9072L9.83226 30.2526L10.6005 30.5755L11.3872 30.8587L12.1893 31.1079L13.013 31.3231L13.846 31.4987L14.7006 31.6374L15.5644 31.7394L16.4436 31.7988L17.3352 31.8215Z" fill="#E40520"/>
<path fill-rule="evenodd" clip-rule="evenodd" d="M26.8682 6.18999H36.0433V5.3291H27.661L26.8682 6.18999Z" fill="#FAB51D"/>
<path fill-rule="evenodd" clip-rule="evenodd" d="M25.4922 8.10503H36.0432V7.24414H26.0475L25.4922 8.10503Z" fill="#FAB51D"/>
<path fill-rule="evenodd" clip-rule="evenodd" d="M24.468 10.0162H36.0433V9.15527H24.8753L24.468 10.0162Z" fill="#FAB51D"/>
<path fill-rule="evenodd" clip-rule="evenodd" d="M23.7615 11.9302H36.0433V11.0693H24.0546L23.7615 11.9302Z" fill="#FAB51D"/>
<path fill-rule="evenodd" clip-rule="evenodd" d="M24.1687 21.1822H36.0741V20.3213H23.8787L24.1687 21.1822Z" fill="#FAB51D"/>
<path fill-rule="evenodd" clip-rule="evenodd" d="M25.0511 23.0962H36.0742V22.2354H24.613L25.0511 23.0962Z" fill="#FAB51D"/>
<path fill-rule="evenodd" clip-rule="evenodd" d="M26.2851 25.0082H36.0741V24.1445H25.6958L26.2851 25.0082Z" fill="#FAB51D"/>
<path fill-rule="evenodd" clip-rule="evenodd" d="M27.988 26.9222H36.0741V26.0557H27.1643L27.988 26.9222Z" fill="#FAB51D"/>
<path fill-rule="evenodd" clip-rule="evenodd" d="M23.3481 13.8394H36.0434V12.9785H23.5302L23.3481 13.8394Z" fill="#FAB51D"/>
<path fill-rule="evenodd" clip-rule="evenodd" d="M31.0856 19.274H35.9292V18.4131H31.2614L31.0856 19.274Z" fill="#FAB51D"/>
<path fill-rule="evenodd" clip-rule="evenodd" d="M31.4712 17.3646H35.9292V16.498H31.647L31.4712 17.3646Z" fill="#FAB51D"/>
<path fill-rule="evenodd" clip-rule="evenodd" d="M23.0272 16.498H24.2859V17.3646H23.0858L23.0272 16.498Z" fill="#FAB51D"/>
<path fill-rule="evenodd" clip-rule="evenodd" d="M20.6795 15.4534L20.5993 15.4506L20.516 15.4393L20.4419 15.4279L20.3648 15.4166L20.2969 15.4053L20.2198 15.3968L20.1427 15.3855L20.0625 15.3741L19.9822 15.3628L19.8866 15.3572L19.7817 15.3543L19.6706 15.3487H19.5503L19.4146 15.3543L19.2634 15.3628L19.0937 15.3741L18.9796 15.3911L18.8685 15.4053L18.7698 15.4393L18.6803 15.4704L18.6001 15.5072L18.523 15.5497L18.4644 15.6035L18.4119 15.6517L18.378 15.7111L18.3502 15.7706L18.3379 15.8357V15.898L18.3564 15.9688L18.378 16.0368L18.4243 16.1076L18.4829 16.1756L18.6001 16.2775L18.7389 16.3596L18.9025 16.4276L19.0783 16.4871L19.2634 16.5409L19.4578 16.6003L19.6491 16.6626L19.8342 16.7334L20.01 16.8241L20.1735 16.9373L20.3185 17.0704L20.4419 17.2347L20.5345 17.4386L20.5931 17.6793L20.6147 17.9681L20.5931 18.3051L20.553 18.5572L20.482 18.7752L20.3895 18.9791L20.2722 19.1547L20.1396 19.3104L19.9853 19.4435L19.8249 19.5625L19.6429 19.6644L19.4578 19.7437L19.2634 19.8145L19.066 19.8683L18.8624 19.9108L18.6649 19.9419L18.4705 19.9589L18.2793 19.9674L18.0972 19.9731H17.8474L17.616 19.9674H17.4124L17.218 19.9646L17.0452 19.9589L16.8879 19.9476L16.746 19.9363L16.6133 19.9193L16.4899 19.9108L16.3788 19.8881L16.2678 19.8711L16.1691 19.8456L16.0703 19.823L15.9778 19.7918L15.8852 19.7607L15.7865 19.7267L16.0487 18.5458L16.1012 18.5572L16.1629 18.5713L16.2462 18.594L16.3449 18.6166L16.4498 18.6364L16.567 18.6591L16.6935 18.6846L16.8354 18.7072L16.9804 18.7271L17.1316 18.7497L17.2889 18.7667L17.4525 18.7809L17.6221 18.7865L17.7887 18.7922H17.9584L18.1281 18.7865L18.2978 18.7554L18.4304 18.7129L18.5353 18.6534L18.6186 18.577L18.6742 18.5033L18.7235 18.4184L18.7513 18.3334L18.776 18.2513L18.7852 18.0956L18.7328 17.9625L18.6341 17.8549L18.4891 17.7642L18.3132 17.6849L18.1096 17.6056L17.8844 17.5292L17.6561 17.4442L17.4216 17.3479L17.2026 17.2347L16.9989 17.0959L16.8108 16.9317L16.6658 16.7278L16.5609 16.4871L16.5084 16.1982L16.5146 15.8556L16.5423 15.646L16.5825 15.4506L16.6411 15.2665L16.712 15.0966L16.8046 14.9352L16.9095 14.7964L17.0329 14.6633L17.1779 14.5444L17.3476 14.4453L17.5327 14.3575L17.7425 14.2782L17.9769 14.2187L18.2392 14.1706L18.523 14.1338L18.8377 14.1111L19.1832 14.1055H19.3992L19.5966 14.1111L19.7755 14.1168L19.9391 14.1225L20.0871 14.1338L20.2198 14.1451L20.337 14.1564L20.4419 14.1649L20.5406 14.1763L20.6209 14.1933L20.698 14.2046L20.7659 14.2131L20.8245 14.2244L20.8769 14.2301L20.9294 14.2414L20.9787 14.2471L20.6795 15.4534Z" fill="white"/>
<path d="M20.6795 15.4534L20.5993 15.4506L20.516 15.4393L20.4419 15.4279L20.3648 15.4166L20.2969 15.4053L20.2198 15.3968L20.1427 15.3855L20.0625 15.3741L19.9822 15.3628L19.8866 15.3572L19.7817 15.3543L19.6706 15.3487H19.5503L19.4146 15.3543L19.2634 15.3628L19.0937 15.3741L18.9796 15.3911L18.8685 15.4053L18.7698 15.4393L18.6803 15.4704L18.6001 15.5072L18.523 15.5497L18.4644 15.6035L18.4119 15.6517L18.378 15.7111L18.3502 15.7706L18.3379 15.8357V15.898L18.3564 15.9688L18.378 16.0368L18.4243 16.1076L18.4829 16.1756L18.6001 16.2775L18.7389 16.3596L18.9025 16.4276L19.0783 16.4871L19.2634 16.5409L19.4578 16.6003L19.6491 16.6626L19.8342 16.7334L20.01 16.8241L20.1735 16.9373L20.3185 17.0704L20.4419 17.2347L20.5345 17.4386L20.5931 17.6793L20.6147 17.9681L20.5931 18.3051L20.553 18.5572L20.482 18.7752L20.3895 18.9791L20.2722 19.1547L20.1396 19.3104L19.9853 19.4435L19.8249 19.5625L19.6429 19.6644L19.4578 19.7437L19.2634 19.8145L19.066 19.8683L18.8624 19.9108L18.6649 19.9419L18.4705 19.9589L18.2793 19.9674L18.0972 19.9731H17.8474L17.616 19.9674H17.4124L17.218 19.9646L17.0452 19.9589L16.8879 19.9476L16.746 19.9363L16.6133 19.9193L16.4899 19.9108L16.3788 19.8881L16.2678 19.8711L16.1691 19.8456L16.0703 19.823L15.9778 19.7918L15.8852 19.7607L15.7865 19.7267L16.0487 18.5458L16.1012 18.5572L16.1629 18.5713L16.2462 18.594L16.3449 18.6166L16.4498 18.6364L16.567 18.6591L16.6935 18.6846L16.8354 18.7072L16.9804 18.7271L17.1316 18.7497L17.2889 18.7667L17.4525 18.7809L17.6221 18.7865L17.7887 18.7922H17.9584L18.1281 18.7865L18.2978 18.7554L18.4304 18.7129L18.5353 18.6534L18.6186 18.577L18.6742 18.5033L18.7235 18.4184L18.7513 18.3334L18.776 18.2513L18.7852 18.0956L18.7328 17.9625L18.6341 17.8549L18.4891 17.7642L18.3132 17.6849L18.1096 17.6056L17.8844 17.5292L17.6561 17.4442L17.4216 17.3479L17.2026 17.2347L16.9989 17.0959L16.8108 16.9317L16.6658 16.7278L16.5609 16.4871L16.5084 16.1982L16.5146 15.8556L16.5423 15.646L16.5825 15.4506L16.6411 15.2665L16.712 15.0966L16.8046 14.9352L16.9095 14.7964L17.0329 14.6633L17.1779 14.5444L17.3476 14.4453L17.5327 14.3575L17.7425 14.2782L17.9769 14.2187L18.2392 14.1706L18.523 14.1338L18.8377 14.1111L19.1832 14.1055H19.3992L19.5966 14.1111L19.7755 14.1168L19.9391 14.1225L20.0871 14.1338L20.2198 14.1451L20.337 14.1564L20.4419 14.1649L20.5406 14.1763L20.6209 14.1933L20.698 14.2046L20.7659 14.2131L20.8245 14.2244L20.8769 14.2301L20.9294 14.2414L20.9787 14.2471L20.6795 15.4534Z" stroke="white" stroke-width="0.22" stroke-miterlimit="2.61"/>
<path fill-rule="evenodd" clip-rule="evenodd" d="M22.0616 12.9248H23.6751L23.4345 14.219H24.4094L24.1996 15.4282L23.1753 15.4027L22.6138 18.3846L22.6077 18.4922L22.6385 18.5829L22.6971 18.6537L22.7712 18.7131L22.8761 18.7499L22.9933 18.7811L23.1198 18.8037L23.2617 18.8122L23.3882 18.8094L23.5054 18.7981L23.6103 18.7811L23.7029 18.7613L23.78 18.7386L23.8325 18.7216L23.8664 18.7131L23.8787 18.7075L23.6751 19.7014L23.635 19.7269L23.5918 19.7496L23.5517 19.7722L23.5116 19.7921L23.4715 19.8091L23.4252 19.8232L23.3728 19.8402L23.3203 19.8572L23.2617 19.8714L23.2031 19.8827L23.1321 19.894L23.0643 19.9053L22.9871 19.9167L22.9007 19.9252L22.8082 19.9365L22.7064 19.9478H22.2652L22.0308 19.9308L21.8271 19.911L21.642 19.877L21.4847 19.8402L21.3489 19.7921L21.241 19.7383L21.1392 19.676L21.0651 19.6052L21.0065 19.5315L20.9664 19.4381L20.9355 19.3475L20.9201 19.2455L20.9139 19.1351V19.0161L20.9294 18.8944L20.9479 18.7613L22.0616 12.9248Z" fill="white"/>
<path d="M22.0616 12.9248H23.6751L23.4345 14.219H24.4094L24.1996 15.4282L23.1753 15.4027L22.6138 18.3846L22.6077 18.4922L22.6385 18.5829L22.6971 18.6537L22.7712 18.7131L22.8761 18.7499L22.9933 18.7811L23.1198 18.8037L23.2617 18.8122L23.3882 18.8094L23.5054 18.7981L23.6103 18.7811L23.7029 18.7613L23.78 18.7386L23.8325 18.7216L23.8664 18.7131L23.8787 18.7075L23.6751 19.7014L23.635 19.7269L23.5918 19.7496L23.5517 19.7722L23.5116 19.7921L23.4715 19.8091L23.4252 19.8232L23.3728 19.8402L23.3203 19.8572L23.2617 19.8714L23.2031 19.8827L23.1321 19.894L23.0643 19.9053L22.9871 19.9167L22.9007 19.9252L22.8082 19.9365L22.7064 19.9478H22.2652L22.0308 19.9308L21.8271 19.911L21.642 19.877L21.4847 19.8402L21.3489 19.7921L21.241 19.7383L21.1392 19.676L21.0651 19.6052L21.0065 19.5315L20.9664 19.4381L20.9355 19.3475L20.9201 19.2455L20.9139 19.1351V19.0161L20.9294 18.8944L20.9479 18.7613L22.0616 12.9248Z" stroke="white" stroke-width="0.22" stroke-miterlimit="2.61"/>
<path fill-rule="evenodd" clip-rule="evenodd" d="M25.6959 17.4442L25.6804 17.5348L25.6743 17.6311L25.6835 17.7331L25.7082 17.835L25.7483 17.937L25.7946 18.0333L25.8594 18.1352L25.9303 18.2258L26.0105 18.3164L26.1 18.3957L26.1926 18.4779L26.2975 18.5402L26.4024 18.5996L26.5196 18.6478L26.6337 18.6846L26.751 18.7072L26.9021 18.7271L27.0471 18.7441L27.2014 18.761L27.3526 18.7695L27.5037 18.7752H27.6611L27.8122 18.7695L27.9696 18.761L28.1269 18.7384L28.2843 18.7129L28.4478 18.6789L28.6051 18.6308L28.7686 18.5713L28.9352 18.509L29.0987 18.4241L29.2684 18.3334L29.0339 19.6474L28.9414 19.6899L28.8488 19.7324L28.7563 19.7664L28.6668 19.7975L28.5804 19.823L28.4879 19.8513L28.3953 19.8711L28.2966 19.8881L28.1917 19.9051L28.0745 19.9164L27.9511 19.9249L27.8184 19.9363L27.6672 19.9419H27.5099L27.3279 19.9476H27.1366L26.8497 19.9419L26.5597 19.9164L26.2666 19.8768L25.9766 19.8145L25.6897 19.7324L25.4182 19.6304L25.156 19.4973L24.9092 19.3416L24.6839 19.1603L24.4834 18.9423L24.3168 18.6959L24.1749 18.4127L24.0762 18.0956L24.0114 17.7387L23.996 17.3423L24.0237 16.9033L24.0484 16.7334L24.0824 16.5352L24.1286 16.3256L24.1934 16.1019L24.2798 15.8725L24.3847 15.6432L24.5204 15.4053L24.6839 15.1816L24.8691 14.9692L25.0974 14.7653L25.3534 14.5841L25.6434 14.4226L25.9828 14.2895L26.3622 14.1933L26.7818 14.1281L27.2538 14.1055L27.4791 14.1111L27.7197 14.1338L27.9572 14.1706L28.1948 14.2244L28.4293 14.3037L28.6576 14.4L28.8674 14.5302L29.0586 14.6803L29.2345 14.8616L29.3795 15.074L29.4967 15.3203L29.5769 15.6035L29.6232 15.9264L29.6294 16.2888L29.5893 16.6966L29.4998 17.1441L29.472 17.4697H25.2238L25.4923 16.4163H28.0436L28.056 16.2832L28.0498 16.1557L28.0375 16.0368L28.0159 15.932L27.9758 15.8301L27.9326 15.7395L27.877 15.6573L27.8184 15.5837L27.7475 15.5186L27.6734 15.4648L27.584 15.4166L27.4976 15.3741L27.405 15.343L27.3094 15.3203L27.2107 15.3062L27.1058 15.2949L26.9947 15.3005L26.8898 15.3147L26.7911 15.3373L26.6924 15.3685L26.5936 15.411L26.5072 15.4591L26.4178 15.5186L26.3437 15.5837L26.2666 15.6573L26.1987 15.7395L26.134 15.8244L26.0815 15.915L26.0291 16.0113L25.989 16.1189L25.9519 16.2237L25.9303 16.337L25.6959 17.4442Z" fill="white"/>
<path d="M25.6959 17.4442L25.6804 17.5348L25.6743 17.6311L25.6835 17.7331L25.7082 17.835L25.7483 17.937L25.7946 18.0333L25.8594 18.1352L25.9303 18.2258L26.0105 18.3164L26.1 18.3957L26.1926 18.4779L26.2975 18.5402L26.4024 18.5996L26.5196 18.6478L26.6337 18.6846L26.751 18.7072L26.9021 18.7271L27.0471 18.7441L27.2014 18.761L27.3526 18.7695L27.5037 18.7752H27.6611L27.8122 18.7695L27.9696 18.761L28.1269 18.7384L28.2843 18.7129L28.4478 18.6789L28.6051 18.6308L28.7686 18.5713L28.9352 18.509L29.0987 18.4241L29.2684 18.3334L29.0339 19.6474L28.9414 19.6899L28.8488 19.7324L28.7563 19.7664L28.6668 19.7975L28.5804 19.823L28.4879 19.8513L28.3953 19.8711L28.2966 19.8881L28.1917 19.9051L28.0745 19.9164L27.9511 19.9249L27.8184 19.9363L27.6672 19.9419H27.5099L27.3279 19.9476H27.1366L26.8497 19.9419L26.5597 19.9164L26.2666 19.8768L25.9766 19.8145L25.6897 19.7324L25.4182 19.6304L25.156 19.4973L24.9092 19.3416L24.6839 19.1603L24.4834 18.9423L24.3168 18.6959L24.1749 18.4127L24.0762 18.0956L24.0114 17.7387L23.996 17.3423L24.0237 16.9033L24.0484 16.7334L24.0824 16.5352L24.1286 16.3256L24.1934 16.1019L24.2798 15.8725L24.3847 15.6432L24.5204 15.4053L24.6839 15.1816L24.8691 14.9692L25.0974 14.7653L25.3534 14.5841L25.6434 14.4226L25.9828 14.2895L26.3622 14.1933L26.7818 14.1281L27.2538 14.1055L27.4791 14.1111L27.7197 14.1338L27.9572 14.1706L28.1948 14.2244L28.4293 14.3037L28.6576 14.4L28.8674 14.5302L29.0586 14.6803L29.2345 14.8616L29.3795 15.074L29.4967 15.3203L29.5769 15.6035L29.6232 15.9264L29.6294 16.2888L29.5893 16.6966L29.4998 17.1441L29.472 17.4697H25.2238L25.4923 16.4163H28.0436L28.056 16.2832L28.0498 16.1557L28.0375 16.0368L28.0159 15.932L27.9758 15.8301L27.9326 15.7395L27.877 15.6573L27.8184 15.5837L27.7475 15.5186L27.6734 15.4648L27.584 15.4166L27.4976 15.3741L27.405 15.343L27.3094 15.3203L27.2107 15.3062L27.1058 15.2949L26.9947 15.3005L26.8898 15.3147L26.7911 15.3373L26.6924 15.3685L26.5936 15.411L26.5072 15.4591L26.4178 15.5186L26.3437 15.5837L26.2666 15.6573L26.1987 15.7395L26.134 15.8244L26.0815 15.915L26.0291 16.0113L25.989 16.1189L25.9519 16.2237L25.9303 16.337L25.6959 17.4442Z" stroke="white" stroke-width="0.22" stroke-miterlimit="2.61"/>
<path fill-rule="evenodd" clip-rule="evenodd" d="M39.5943 14.5413L39.5172 14.5016L39.4431 14.4705L39.3598 14.4337L39.2734 14.3969L39.184 14.3629L39.0852 14.3317L38.9865 14.3006L38.8816 14.2666L38.7706 14.2411L38.6595 14.2185L38.5392 14.1986L38.4158 14.1816L38.2831 14.1703L38.1474 14.159H38.0085H37.8635H37.7155L37.5643 14.1703L37.4069 14.1873L37.2465 14.2128L37.083 14.2553L36.9195 14.3147L36.756 14.3912L36.5925 14.4875L36.4351 14.6036L36.284 14.7424L36.139 14.9151L35.9971 15.1133L35.8706 15.3484L35.7472 15.6146L35.6361 15.9147L35.5435 16.2574L35.5096 16.45L35.4849 16.6369L35.4726 16.8238L35.4788 17.005L35.4973 17.1862L35.5374 17.359L35.5898 17.5176L35.6546 17.679L35.741 17.8234L35.8459 17.9622L35.9693 18.0868L36.1081 18.1972L36.2655 18.2935L36.4475 18.3756L36.6449 18.4436L36.8671 18.4917L36.9411 18.5087L37.0306 18.5257L37.1355 18.5342L37.2496 18.5455L37.3792 18.5569H37.5118H37.6599L37.8049 18.5455L37.9561 18.5285L38.1073 18.5031L38.2523 18.4662L38.3973 18.4238L38.5454 18.3643L38.678 18.2935L38.8014 18.2085L38.9187 18.1123L38.6564 19.5395L38.6194 19.5678L38.5855 19.599L38.5392 19.6358L38.4867 19.6698L38.422 19.7123L38.3417 19.7491L38.2461 19.7859L38.1412 19.8199L38.0085 19.8567L37.8574 19.8822L37.6815 19.9048L37.4779 19.9247L37.2496 19.936L36.9874 19.9416L36.6912 19.936L36.3642 19.919L36.0958 19.8935L35.8305 19.8397L35.5621 19.7604L35.2936 19.6528L35.0376 19.5254L34.7908 19.3639L34.5594 19.177L34.3434 18.9618L34.1522 18.7211L33.9887 18.4549L33.8467 18.1547L33.7418 17.8291L33.674 17.4694L33.6493 17.09L33.6616 16.6737L33.7264 16.2291L33.7727 16.011L33.8251 15.7958L33.8838 15.5891L33.9424 15.3908L34.0041 15.2039L34.0812 15.017L34.1583 14.8386L34.2385 14.6744L34.3249 14.5073L34.4144 14.3516L34.5131 14.2043L34.618 14.0627L34.7229 13.9296L34.8371 13.8022L34.9543 13.6832L35.0777 13.5728L35.2104 13.4652L35.3461 13.3632L35.4849 13.2726L35.6299 13.1877L35.7873 13.1055L35.9446 13.0376L36.1081 12.9724L36.2778 12.913L36.4598 12.8592L36.6388 12.8167L36.8269 12.7799L37.0244 12.7487L37.2218 12.7204L37.4316 12.7006L37.6414 12.6893L37.8635 12.6836L38.0486 12.6893L38.2307 12.7006L38.4034 12.7147L38.5793 12.7374L38.7428 12.7601L38.9001 12.7912L39.0513 12.8167L39.1901 12.8507L39.3259 12.8818L39.4431 12.913L39.5511 12.947L39.6467 12.9781L39.7269 13.0036L39.7979 13.0262L39.8504 13.0489L39.8843 13.0574L39.5943 14.5413Z" fill="white"/>
<path d="M39.5943 14.5413L39.5172 14.5016L39.4431 14.4705L39.3598 14.4337L39.2734 14.3969L39.184 14.3629L39.0852 14.3317L38.9865 14.3006L38.8816 14.2666L38.7706 14.2411L38.6595 14.2185L38.5392 14.1986L38.4158 14.1816L38.2831 14.1703L38.1474 14.159H38.0085H37.8635H37.7155L37.5643 14.1703L37.4069 14.1873L37.2465 14.2128L37.083 14.2553L36.9195 14.3147L36.756 14.3912L36.5925 14.4875L36.4351 14.6036L36.284 14.7424L36.139 14.9151L35.9971 15.1133L35.8706 15.3484L35.7472 15.6146L35.6361 15.9147L35.5435 16.2574L35.5096 16.45L35.4849 16.6369L35.4726 16.8238L35.4788 17.005L35.4973 17.1862L35.5374 17.359L35.5898 17.5176L35.6546 17.679L35.741 17.8234L35.8459 17.9622L35.9693 18.0868L36.1081 18.1972L36.2655 18.2935L36.4475 18.3756L36.6449 18.4436L36.8671 18.4917L36.9411 18.5087L37.0306 18.5257L37.1355 18.5342L37.2496 18.5455L37.3792 18.5569H37.5118H37.6599L37.8049 18.5455L37.9561 18.5285L38.1073 18.5031L38.2523 18.4662L38.3973 18.4238L38.5454 18.3643L38.678 18.2935L38.8014 18.2086L38.9186 18.1123L38.6564 19.5395L38.6194 19.5678L38.5855 19.599L38.5392 19.6358L38.4867 19.6698L38.422 19.7123L38.3417 19.7491L38.2461 19.7859L38.1412 19.8199L38.0085 19.8567L37.8574 19.8822L37.6815 19.9048L37.4779 19.9247L37.2496 19.936L36.9874 19.9416L36.6912 19.936L36.3642 19.919L36.0958 19.8935L35.8305 19.8397L35.5621 19.7604L35.2936 19.6528L35.0376 19.5254L34.7908 19.3639L34.5594 19.177L34.3434 18.9618L34.1522 18.7211L33.9887 18.4549L33.8467 18.1547L33.7418 17.8291L33.674 17.4694L33.6493 17.09L33.6616 16.6737L33.7264 16.2291L33.7727 16.011L33.8251 15.7958L33.8838 15.5891L33.9424 15.3908L34.0041 15.2039L34.0812 15.017L34.1583 14.8386L34.2385 14.6744L34.3249 14.5073L34.4144 14.3516L34.5131 14.2043L34.618 14.0627L34.7229 13.9296L34.8371 13.8022L34.9543 13.6832L35.0777 13.5728L35.2104 13.4652L35.3461 13.3632L35.4849 13.2726L35.6299 13.1877L35.7873 13.1055L35.9446 13.0376L36.1081 12.9724L36.2778 12.913L36.4598 12.8592L36.6388 12.8167L36.8269 12.7799L37.0244 12.7487L37.2218 12.7204L37.4316 12.7006L37.6414 12.6893L37.8635 12.6836L38.0486 12.6893L38.2307 12.7006L38.4034 12.7147L38.5793 12.7374L38.7428 12.7601L38.9001 12.7912L39.0513 12.8167L39.1901 12.8507L39.3259 12.8818L39.4431 12.913L39.5511 12.947L39.6467 12.9781L39.7269 13.0036L39.7979 13.0262L39.8504 13.0489L39.8843 13.0574L39.5943 14.5413Z" stroke="white" stroke-width="0.22" stroke-miterlimit="2.61"/>
<path fill-rule="evenodd" clip-rule="evenodd" d="M53.937 19.9478H52.3235L52.4407 19.3531V19.2993L52.3481 19.4069L52.2494 19.5032L52.1507 19.5882L52.0458 19.6646L51.9409 19.7326L51.836 19.7921L51.7311 19.8402L51.6201 19.8883L51.509 19.9252L51.3979 19.9535L51.2869 19.979L51.1696 19.996L51.0555 20.0129L50.9444 20.0214L50.8272 20.0271H50.7099L50.4076 20.0073L50.1269 19.9478L49.8708 19.8572L49.6394 19.7326L49.4296 19.5797L49.2414 19.3956L49.0779 19.1974L48.9391 18.9737L48.8219 18.7329L48.7293 18.4809L48.6645 18.2204L48.6182 17.9485L48.5997 17.6738L48.6059 17.3963L48.6368 17.1245L48.6892 16.8498L48.7756 16.5354L48.8805 16.2353L49.0039 15.9634L49.1489 15.7057L49.3 15.465L49.4759 15.2526L49.6548 15.06L49.8492 14.8816L50.0528 14.7287L50.2688 14.5928L50.4878 14.4767L50.7099 14.386L50.9444 14.3096L51.1758 14.2614L51.4103 14.2303L51.6478 14.219L51.8175 14.2246L51.981 14.2416L52.1322 14.2671L52.271 14.3039L52.4068 14.3464L52.524 14.3974L52.6381 14.454L52.743 14.5135L52.8356 14.5786L52.925 14.6466L52.9991 14.7174L53.07 14.7853L53.1287 14.8561L53.1811 14.9241L53.2274 14.9892L53.2613 15.0544L53.6716 12.9531H55.2543L53.937 19.9478Z" fill="white"/>
<path d="M53.937 19.9478H52.3235L52.4407 19.3531V19.2993L52.3481 19.4069L52.2494 19.5032L52.1507 19.5882L52.0458 19.6646L51.9409 19.7326L51.836 19.7921L51.7311 19.8402L51.6201 19.8883L51.509 19.9252L51.3979 19.9535L51.2869 19.979L51.1696 19.996L51.0555 20.0129L50.9444 20.0214L50.8272 20.0271H50.7099L50.4076 20.0073L50.1269 19.9478L49.8708 19.8572L49.6394 19.7326L49.4296 19.5797L49.2414 19.3956L49.0779 19.1974L48.9391 18.9737L48.8219 18.7329L48.7293 18.4809L48.6645 18.2204L48.6182 17.9485L48.5997 17.6738L48.6059 17.3963L48.6368 17.1245L48.6892 16.8498L48.7756 16.5354L48.8805 16.2353L49.0039 15.9634L49.1489 15.7057L49.3 15.465L49.4759 15.2526L49.6548 15.06L49.8492 14.8816L50.0528 14.7287L50.2688 14.5928L50.4878 14.4767L50.7099 14.386L50.9444 14.3096L51.1758 14.2614L51.4103 14.2303L51.6478 14.219L51.8175 14.2246L51.981 14.2416L52.1322 14.2671L52.271 14.3039L52.4068 14.3464L52.524 14.3974L52.6381 14.454L52.743 14.5135L52.8356 14.5786L52.925 14.6466L52.9991 14.7174L53.07 14.7853L53.1287 14.8561L53.1811 14.9241L53.2274 14.9892L53.2613 15.0544L53.6716 12.9531H55.2543L53.937 19.9478Z" stroke="white" stroke-width="0.22" stroke-miterlimit="2.61"/>
<path fill-rule="evenodd" clip-rule="evenodd" d="M51.2992 18.653L51.4627 18.6417L51.6138 18.6106L51.7527 18.5709L51.8884 18.5143L52.0087 18.4491L52.126 18.3698L52.237 18.2792L52.3358 18.1829L52.4221 18.0753L52.5054 17.9564L52.5795 17.8346L52.6443 17.7072L52.7029 17.5713L52.7492 17.4325L52.7893 17.2881L52.8201 17.1436L52.8479 16.9936L52.8664 16.8406V16.6962L52.8602 16.5461L52.8417 16.4074L52.8201 16.2714L52.78 16.144L52.7306 16.0222L52.6751 15.9146L52.6042 15.8127L52.527 15.7277L52.4406 15.6513L52.3419 15.589L52.237 15.5465L52.126 15.5182L52.0026 15.5068L51.8452 15.5182L51.7002 15.5408L51.5676 15.5833L51.4318 15.6371L51.3146 15.7051L51.2004 15.79L51.1017 15.8835L51.003 15.9826L50.9135 16.1015L50.8333 16.2233L50.7562 16.3536L50.6914 16.4923L50.6359 16.6367L50.5865 16.7812L50.5402 16.9369L50.5063 17.0898L50.4785 17.3249L50.4878 17.5826L50.531 17.8459L50.605 18.0952L50.7222 18.316L50.8734 18.4916L51.0647 18.6106L51.2992 18.653Z" fill="#FAB51D"/>
<path fill-rule="evenodd" clip-rule="evenodd" d="M15.5181 18.7607L15.2836 19.9472H13.8151L13.8583 19.7263L13.8861 19.5309L13.9107 19.3808L13.9323 19.2987L13.8521 19.3865L13.7596 19.4715L13.6485 19.5507L13.5251 19.6272L13.3863 19.7008L13.2382 19.766L13.087 19.8283L12.9297 19.8821L12.7631 19.9302L12.5934 19.967L12.4237 20.001L12.2479 20.0208L12.0813 20.0322L11.9116 20.0378L11.7481 20.0208L11.5907 20.001L11.3871 19.9529L11.1989 19.8991L11.0385 19.8283L10.8904 19.749L10.7639 19.664L10.6467 19.5677L10.5542 19.4658L10.4709 19.3582L10.403 19.2449L10.3444 19.1288L10.2981 19.0099L10.2611 18.8938L10.2395 18.7692L10.221 18.6474L10.2086 18.5284V18.4123L10.2271 18.2028L10.2611 18.0045L10.3197 17.8176L10.3968 17.6364L10.4894 17.4665L10.5943 17.3107L10.7177 17.1607L10.8565 17.0276L11.0015 16.903L11.165 16.7925L11.3347 16.6906L11.5075 16.6028L11.6956 16.5292L11.8869 16.4697L12.0844 16.4215L12.2911 16.3904H12.3003L12.3312 16.3847L12.3713 16.3791L12.4361 16.3734L12.5039 16.3649L12.5872 16.3592L12.6736 16.3479L12.7723 16.3366L12.8711 16.3253L12.9729 16.3168L13.0778 16.3111L13.1703 16.2998L13.2629 16.2941L13.3493 16.2884L13.4326 16.2828H13.4973H13.63L13.7688 16.2884L13.8984 16.2941H14.0249L14.1298 16.2998L14.2131 16.3054L14.2717 16.3111H14.2871L14.2995 16.2715L14.3334 16.1752L14.3643 16.0647L14.3766 15.9628L14.3519 15.8438L14.2995 15.7391L14.2285 15.6428L14.136 15.5607L14.0249 15.4927L13.9046 15.4445L13.7627 15.4106L13.6115 15.4021L13.448 15.3964L13.2752 15.3907H13.0932L12.9081 15.3964L12.7137 15.4049L12.5286 15.4219L12.3435 15.4389L12.1615 15.4587L11.9856 15.4814L11.819 15.5069L11.6648 15.5352L11.526 15.5607L11.3995 15.5946L11.2946 15.6258L11.2113 15.6626L11.1465 15.6938L11.5599 14.4053L11.6895 14.3571L11.819 14.3146L11.9579 14.2778L12.0967 14.2523L12.2386 14.224L12.3898 14.2042L12.541 14.1815L12.6983 14.1702L12.8618 14.1589L13.0284 14.1561L13.2043 14.1504H13.3863H13.5714H13.7627L13.9663 14.1561L14.173 14.1589L14.3334 14.1702L14.5093 14.1985L14.6913 14.2353L14.8764 14.2835L15.0584 14.3458L15.2312 14.4222L15.407 14.5129L15.5705 14.6148L15.7155 14.7309L15.8451 14.8612L15.9593 15.0056L16.0487 15.1642L16.1073 15.3369L16.1413 15.5182V15.7221L16.1073 15.9345L15.5181 18.7607Z" fill="white"/>
<path d="M15.5181 18.7607L15.2836 19.9472H13.8151L13.8583 19.7263L13.8861 19.5309L13.9107 19.3808L13.9323 19.2987L13.8521 19.3865L13.7596 19.4715L13.6485 19.5507L13.5251 19.6272L13.3863 19.7008L13.2382 19.766L13.087 19.8283L12.9297 19.8821L12.7631 19.9302L12.5934 19.967L12.4237 20.001L12.2479 20.0208L12.0813 20.0322L11.9116 20.0378L11.7481 20.0208L11.5907 20.001L11.3871 19.9529L11.1989 19.8991L11.0385 19.8283L10.8904 19.749L10.7639 19.664L10.6467 19.5677L10.5542 19.4658L10.4709 19.3582L10.403 19.2449L10.3444 19.1288L10.2981 19.0099L10.2611 18.8938L10.2395 18.7692L10.221 18.6474L10.2086 18.5284V18.4123L10.2271 18.2028L10.2611 18.0046L10.3197 17.8176L10.3968 17.6364L10.4894 17.4665L10.5943 17.3107L10.7177 17.1607L10.8565 17.0276L11.0015 16.903L11.165 16.7925L11.3347 16.6906L11.5075 16.6028L11.6956 16.5292L11.8869 16.4697L12.0844 16.4215L12.2911 16.3904H12.3003L12.3312 16.3847L12.3713 16.3791L12.4361 16.3734L12.5039 16.3649L12.5872 16.3592L12.6736 16.3479L12.7723 16.3366L12.8711 16.3253L12.9729 16.3168L13.0778 16.3111L13.1703 16.2998L13.2629 16.2941L13.3493 16.2884L13.4326 16.2828H13.4973H13.63L13.7688 16.2884L13.8984 16.2941H14.0249L14.1298 16.2998L14.2131 16.3054L14.2717 16.3111H14.2871L14.2995 16.2715L14.3334 16.1752L14.3643 16.0647L14.3766 15.9628L14.3519 15.8438L14.2995 15.7391L14.2285 15.6428L14.136 15.5607L14.0249 15.4927L13.9046 15.4445L13.7627 15.4106L13.6115 15.4021L13.448 15.3964L13.2752 15.3907H13.0932L12.9081 15.3964L12.7137 15.4049L12.5286 15.4219L12.3435 15.4389L12.1615 15.4587L11.9856 15.4814L11.819 15.5069L11.6648 15.5352L11.526 15.5607L11.3995 15.5946L11.2946 15.6258L11.2113 15.6626L11.1465 15.6938L11.5599 14.4053L11.6895 14.3571L11.819 14.3146L11.9579 14.2778L12.0967 14.2523L12.2386 14.224L12.3898 14.2042L12.541 14.1815L12.6983 14.1702L12.8618 14.1589L13.0284 14.1561L13.2043 14.1504H13.3863H13.5714H13.7627L13.9663 14.1561L14.173 14.1589L14.3334 14.1702L14.5093 14.1985L14.6913 14.2353L14.8764 14.2835L15.0584 14.3458L15.2312 14.4222L15.407 14.5129L15.5705 14.6148L15.7155 14.7309L15.8451 14.8612L15.9593 15.0056L16.0487 15.1642L16.1073 15.3369L16.1413 15.5182V15.7221L16.1073 15.9345L15.5181 18.7607Z" stroke="white" stroke-width="0.22" stroke-miterlimit="2.61"/>
<path fill-rule="evenodd" clip-rule="evenodd" d="M14.1144 17.3648L14.1082 17.3365L14.0836 17.311L14.0496 17.294L13.991 17.2827L13.9262 17.2742L13.8522 17.2686H13.7627H13.6763L13.5838 17.2742L13.485 17.2827L13.3894 17.294L13.2969 17.3054L13.2105 17.3167L13.1303 17.3309L13.0593 17.3478L12.9945 17.3648L12.9544 17.3733L12.9081 17.3903L12.8433 17.413L12.7786 17.4385L12.7045 17.4696L12.6274 17.5093L12.5472 17.5461L12.47 17.5886L12.3898 17.6424L12.3127 17.6962L12.2417 17.7585L12.18 17.8236L12.1214 17.8944L12.0813 17.968L12.0443 18.053L12.0289 18.1408L12.0227 18.322L12.0505 18.4664L12.1091 18.5712L12.1862 18.6533L12.2726 18.7071L12.3713 18.7383L12.4639 18.7553L12.5564 18.7609L12.7323 18.7553L12.8896 18.7383L13.0408 18.7156L13.1765 18.6845L13.2907 18.6477L13.4017 18.5995L13.5005 18.5514L13.5899 18.4919L13.664 18.4381L13.7349 18.3758L13.7936 18.3163L13.8398 18.2512L13.8799 18.1889L13.9139 18.1238L13.9447 18.0643L13.9632 18.0048L14.0095 17.8519L14.0496 17.6735L14.0836 17.5036L14.1144 17.3648Z" fill="#E40520"/>
<path fill-rule="evenodd" clip-rule="evenodd" d="M3.25786 19.9478H1.67212L2.99563 12.9248H5.75063L6.01595 17.0905L7.91946 12.9248H10.7979L9.44659 19.9478H7.86084L8.8635 14.7004H8.79872L6.42935 19.9478H4.63999L4.62765 19.7269L4.58754 19.1464L4.5351 18.3167L4.47648 17.3652L4.41787 16.408L4.36542 15.5669L4.32531 14.9581L4.31297 14.7004H4.29446H4.26052H4.22659L3.25786 19.9478Z" fill="white"/>
<path d="M3.25786 19.9478H1.67212L2.99563 12.9248H5.75063L6.01595 17.0905L7.91946 12.9248H10.7979L9.44659 19.9478H7.86084L8.8635 14.7004H8.79872L6.42935 19.9478H4.63999L4.62765 19.7269L4.58754 19.1464L4.5351 18.3167L4.47648 17.3652L4.41787 16.408L4.36542 15.5669L4.32531 14.9581L4.31297 14.7004H4.29446H4.26052H4.22659L3.25786 19.9478Z" stroke="white" stroke-width="0.22" stroke-miterlimit="2.61"/>
<path fill-rule="evenodd" clip-rule="evenodd" d="M44.4347 18.7607L44.1972 19.9472H42.7348L42.7441 19.7263L42.7503 19.5338V19.3893L42.7626 19.327L42.6886 19.4063L42.5991 19.4856L42.4942 19.5621L42.377 19.6357L42.2567 19.7065L42.1147 19.7716L41.9697 19.8339L41.8247 19.8877L41.6674 19.9302L41.5039 19.9727L41.3404 20.001L41.1769 20.0208L41.0103 20.0322L40.8468 20.0378L40.6894 20.0208L40.5321 20.001L40.3223 19.9529L40.1341 19.8991L39.9706 19.8283L39.8194 19.749L39.6929 19.664L39.5819 19.5677L39.4893 19.4658L39.406 19.3582L39.3381 19.2449L39.2857 19.1288L39.2363 19.0099L39.2086 18.8938L39.1839 18.7692L39.1685 18.6474L39.1561 18.5284V18.4123L39.1685 18.2028L39.2024 18.0045L39.2548 17.8176L39.332 17.6364L39.4184 17.4665L39.5294 17.3107L39.6528 17.1607L39.7855 17.0276L39.9367 16.903L40.094 16.7925L40.2637 16.6906L40.4426 16.6028L40.6246 16.5292L40.8159 16.4697L41.0103 16.4215L41.2077 16.3904H41.2201L41.2478 16.3847L41.2879 16.3791L41.3465 16.3734L41.4237 16.3649L41.5039 16.3592L41.5903 16.3479L41.6859 16.3366L41.7846 16.3253L41.8895 16.3168L41.9883 16.3111L42.087 16.2998L42.1795 16.2941L42.2628 16.2884L42.343 16.2828H42.4078H42.5467L42.6886 16.2884L42.8212 16.2941H42.9477L43.0588 16.2998L43.1544 16.3054L43.2069 16.3111H43.2285L43.2408 16.2715L43.2593 16.1752L43.2747 16.0647L43.2871 15.9628L43.2624 15.8438L43.2161 15.7391L43.1421 15.6428L43.0526 15.5607L42.9477 15.4927L42.8274 15.4445L42.6978 15.4106L42.559 15.4021L42.3955 15.3964L42.2196 15.3907H42.0407L41.8525 15.3964L41.6612 15.4049L41.4761 15.4219L41.2879 15.4389L41.109 15.4587L40.9331 15.4814L40.7635 15.5069L40.6123 15.5352L40.4735 15.5607L40.3439 15.5946L40.239 15.6258L40.1588 15.6626L40.094 15.6938L40.5012 14.4053L40.6308 14.3571L40.7635 14.3146L40.8992 14.2778L41.038 14.2523L41.183 14.224L41.328 14.2042L41.4792 14.1815L41.6396 14.1702L41.8001 14.1589L41.9697 14.1561L42.1394 14.1504H42.3184H42.5004H42.6886L42.886 14.1561L43.0835 14.1589L43.247 14.1702L43.4228 14.1985L43.6018 14.2353L43.7869 14.2835L43.9689 14.3458L44.1509 14.4222L44.3237 14.5129L44.4872 14.6148L44.6322 14.7309L44.7679 14.8612L44.8852 15.0056L44.9715 15.1642L45.0363 15.3369L45.0764 15.5182V15.7221L45.0456 15.9345L44.4347 18.7607Z" fill="white"/>
<path fill-rule="evenodd" clip-rule="evenodd" d="M44.1972 19.9849L44.2311 19.9537L44.4687 18.7672L44.4008 18.7559L44.1602 19.9424L44.1972 19.9113V19.9849L44.2249 19.9792L44.2311 19.9537L44.1972 19.9849Z" fill="white"/>
<path fill-rule="evenodd" clip-rule="evenodd" d="M42.6978 19.9479L42.7348 19.9848H44.1972V19.9111H42.7348L42.7688 19.9479H42.6978L42.6917 19.9848H42.7348L42.6978 19.9479Z" fill="white"/>
<path fill-rule="evenodd" clip-rule="evenodd" d="M42.7904 19.3472L42.7411 19.3047L42.7164 19.3896L42.7102 19.5341V19.7266L42.6979 19.9475H42.7688L42.7812 19.7266L42.7904 19.5341L42.7873 19.3896V19.3472L42.7349 19.3047L42.7904 19.3472Z" fill="white"/>
<path fill-rule="evenodd" clip-rule="evenodd" d="M40.526 20.0325L40.6895 20.0551L40.8469 20.0693L41.0104 20.0636L41.177 20.0551L41.3466 20.0325L41.5102 20.007L41.6737 19.9645L41.8372 19.9192L41.9822 19.8682L42.1333 19.8031L42.2722 19.738L42.3956 19.6643L42.519 19.5879L42.6239 19.5142L42.7164 19.4293L42.7905 19.3472L42.7349 19.3047L42.6578 19.3868L42.5776 19.4604L42.4727 19.5341L42.3616 19.6105L42.2382 19.6757L42.0994 19.738L41.9575 19.8031L41.8125 19.8569L41.6613 19.8994L41.4978 19.9419L41.3343 19.9673L41.177 19.99L41.0104 20.0013L40.8469 20.007L40.6895 19.99L40.5383 19.9673L40.526 20.0325Z" fill="white"/>
<path fill-rule="evenodd" clip-rule="evenodd" d="M39.1161 18.4131L39.1223 18.5292L39.1315 18.6481L39.15 18.7756L39.1747 18.9002L39.2025 19.0163L39.2487 19.1409L39.3012 19.2626L39.3783 19.3759L39.4585 19.4864L39.5511 19.5883L39.6683 19.6903L39.8041 19.7752L39.9552 19.863L40.1218 19.931L40.3162 19.9848L40.526 20.0329L40.5383 19.9678L40.3285 19.9196L40.1465 19.8687L39.9892 19.7979L39.838 19.7242L39.7146 19.6364L39.6097 19.5458L39.5171 19.4439L39.4369 19.3419L39.3721 19.2315L39.3197 19.1182L39.2734 19.0078L39.2426 18.8888L39.221 18.7671L39.2025 18.6481L39.1901 18.5292L39.1963 18.4131H39.1161Z" fill="white"/>
<path fill-rule="evenodd" clip-rule="evenodd" d="M41.2078 16.3594L41.0042 16.3905L40.8036 16.4387L40.6124 16.4981L40.4273 16.5718L40.2452 16.6567L40.0694 16.7643L39.912 16.8776L39.7609 17.005L39.622 17.1381L39.4986 17.2882L39.3845 17.4496L39.295 17.6252L39.221 17.8065L39.1685 17.999L39.1315 18.2029L39.1161 18.4125H39.1963L39.2025 18.2029L39.2364 18.0103L39.2889 17.8291L39.366 17.6479L39.4524 17.4808L39.5573 17.3307L39.6807 17.1806L39.8102 17.0475L39.9614 16.9314L40.1187 16.8181L40.2823 16.7219L40.4612 16.6369L40.637 16.5604L40.8283 16.5038L41.0134 16.4557L41.2078 16.4217V16.3594Z" fill="white"/>
<path fill-rule="evenodd" clip-rule="evenodd" d="M42.4079 16.2461H42.3431L42.2629 16.2574L42.1796 16.2631L42.087 16.2687L41.9883 16.2772L41.8896 16.2829L41.7847 16.2942L41.686 16.3056L41.5903 16.3169L41.5039 16.3254L41.4237 16.331L41.3466 16.3424L41.288 16.348L41.2417 16.3537L41.2201 16.3594H41.2078V16.4217H41.2201L41.254 16.416L41.288 16.4132L41.3466 16.4075L41.4237 16.3962L41.5039 16.3905L41.5903 16.3792L41.686 16.3679L41.7847 16.3594L41.8896 16.348L41.9883 16.3424L42.087 16.331L42.1796 16.3254L42.2629 16.3197H42.3431H42.4079V16.2461Z" fill="white"/>
<path fill-rule="evenodd" clip-rule="evenodd" d="M43.1945 16.3056L43.2285 16.2772H43.2069L43.1544 16.2716L43.0588 16.2687L42.9477 16.2574H42.8212H42.6886L42.5467 16.2461H42.4078V16.3197H42.5467H42.6886L42.8212 16.331H42.9477H43.0588L43.1544 16.3367L43.2069 16.3424H43.2285L43.2624 16.3169L43.2285 16.3424L43.2593 16.348L43.2624 16.3169L43.1945 16.3056Z" fill="white"/>
<path fill-rule="evenodd" clip-rule="evenodd" d="M43.2532 15.9629H43.247L43.2409 16.0648L43.2223 16.1724L43.2069 16.2687L43.1946 16.3055L43.2625 16.3169L43.2748 16.2772L43.2933 16.1809L43.3118 16.0648L43.3272 15.9629H43.3211H43.2532Z" fill="white"/>
<path fill-rule="evenodd" clip-rule="evenodd" d="M42.5591 15.4341V15.4397L42.6917 15.4454L42.8151 15.4766L42.9324 15.5247L43.0311 15.5898L43.1113 15.6635L43.1823 15.7541L43.2285 15.8504L43.2532 15.9636H43.3211L43.2995 15.839L43.2532 15.7229L43.1699 15.621L43.0774 15.536L42.9663 15.4596L42.8398 15.4114L42.7041 15.3803L42.5591 15.3633V15.3689V15.4341Z" fill="white"/>
<path fill-rule="evenodd" clip-rule="evenodd" d="M40.0601 15.6915L40.1187 15.7226L40.1742 15.6943L40.2513 15.6575L40.3501 15.6264L40.4796 15.5952L40.6185 15.5669L40.7696 15.5414L40.9393 15.5131L41.109 15.4933L41.2879 15.4706L41.4761 15.4536L41.6612 15.4394L41.8525 15.4281H42.0407H42.2196H42.3955L42.559 15.4338V15.3687L42.3955 15.363L42.2196 15.3545H42.0407L41.8525 15.363L41.6612 15.3743L41.4761 15.3913L41.2879 15.4055L41.109 15.4281L40.927 15.4508L40.7573 15.4763L40.6061 15.5017L40.4673 15.5301L40.3377 15.5612L40.2267 15.5952L40.1403 15.632L40.0693 15.6688L40.1279 15.7L40.0601 15.6915Z" fill="white"/>
<path fill-rule="evenodd" clip-rule="evenodd" d="M40.492 14.375L40.4673 14.4005L40.0601 15.6918L40.1279 15.7003L40.5382 14.4118L40.5136 14.4401L40.492 14.375L40.4735 14.3807L40.4673 14.4005L40.492 14.375Z" fill="white"/>
<path fill-rule="evenodd" clip-rule="evenodd" d="M43.0836 14.1283L42.8861 14.117L42.6887 14.1113H42.5005H42.3185H42.1395L41.9698 14.1227L41.8001 14.1283L41.6397 14.1396L41.4793 14.151L41.325 14.1708L41.177 14.1935L41.032 14.2189L40.8931 14.2473L40.7512 14.2841L40.6186 14.3265L40.4921 14.3747L40.5137 14.4398L40.6432 14.3917L40.7759 14.3464L40.9055 14.3096L41.0443 14.2841L41.1893 14.2558L41.3343 14.2359L41.4793 14.2133L41.6397 14.2048L41.8001 14.1935L41.9698 14.1878H42.1395H42.3185H42.5005H42.6887L42.8861 14.1935H43.0836V14.1283Z" fill="white"/>
<path fill-rule="evenodd" clip-rule="evenodd" d="M45.0826 15.9403L45.1104 15.7223V15.5184L45.0703 15.3315L45.0055 15.1559L44.913 14.9888L44.7957 14.8387L44.6569 14.7056L44.5119 14.5895L44.3422 14.4876L44.1664 14.3913L43.9813 14.3148L43.7992 14.2525L43.608 14.2044L43.4259 14.1647L43.247 14.1393L43.0835 14.1279V14.1931L43.247 14.2044L43.4167 14.2299L43.5956 14.2667L43.7776 14.3148L43.9566 14.38L44.1324 14.4536L44.3083 14.5414L44.4625 14.6405L44.6106 14.7594L44.7371 14.8812L44.8544 15.02L44.9376 15.1757L44.9993 15.3428L45.0425 15.5184V15.7223L45.0117 15.9318L45.0826 15.9403Z" fill="white"/>
<path fill-rule="evenodd" clip-rule="evenodd" d="M44.4688 18.7663L45.0827 15.9401L45.0117 15.9316L44.4009 18.755L44.4688 18.7663Z" fill="white"/>
<path fill-rule="evenodd" clip-rule="evenodd" d="M43.0249 17.3646L43.0126 17.3307L42.991 17.3052L42.9478 17.2882L42.8923 17.274L42.8275 17.2684L42.7504 17.2627H42.664L42.5776 17.2684L42.482 17.2769L42.3894 17.2882L42.2968 17.2995L42.2105 17.3108L42.121 17.325L42.047 17.3363L41.9698 17.3533L41.9112 17.3646L41.8711 17.3703L41.8248 17.3845L41.7662 17.4015L41.7014 17.4213L41.6274 17.4553L41.5564 17.4864L41.4762 17.5232L41.3991 17.5714L41.325 17.6195L41.2479 17.679L41.1831 17.7384L41.1183 17.8064L41.069 17.8829L41.0258 17.9622L40.9918 18.0471L40.9733 18.1406L40.9672 18.3218L40.998 18.4662L41.0443 18.571L41.1152 18.6531L41.2016 18.7069L41.3004 18.7381L41.3991 18.7551L41.4978 18.7607L41.6736 18.7551L41.8372 18.7381L41.9883 18.7126L42.121 18.673L42.2506 18.6305L42.3616 18.5823L42.4665 18.5285L42.5591 18.4662L42.6393 18.4068L42.7102 18.336L42.775 18.2737L42.8275 18.2029L42.8676 18.1406L42.8954 18.0754L42.92 18.0103L42.9385 17.9508L42.9601 17.8036L42.991 17.6478L43.0126 17.4977L43.0249 17.3646Z" fill="#FAB51D"/>
<path fill-rule="evenodd" clip-rule="evenodd" d="M55.0291 19.2143L55.0383 19.0925L55.0846 18.9481L55.1679 18.8178L55.2666 18.7074L55.39 18.6168L55.5288 18.5517L55.68 18.5092L55.8435 18.4922L56.007 18.5092L56.1582 18.5517L56.297 18.6168L56.4204 18.7074L56.5192 18.8178L56.6025 18.9481L56.6487 19.0925L56.658 19.2143H56.4852L56.4791 19.118L56.442 19.0019L56.3865 18.8943L56.3094 18.8037L56.2168 18.7272L56.1058 18.6734L55.9762 18.6366L55.8435 18.6253L55.7109 18.6366L55.5813 18.6734L55.4702 18.7272L55.3777 18.8037L55.3005 18.8943L55.2419 19.0019L55.208 19.118L55.1957 19.2143H55.0291Z" fill="white"/>
<path fill-rule="evenodd" clip-rule="evenodd" d="M55.5535 19.2145V18.8945H55.8712L55.9422 18.9002L56.007 18.9115L56.0533 18.9257L56.0934 18.9483L56.1242 18.9795L56.1458 19.0106L56.1581 19.0503L56.1643 19.0871L56.1581 19.1352L56.1458 19.1721L56.1304 19.2032L56.118 19.2145H55.8712L55.8959 19.2089L55.936 19.2032L55.973 19.1947L56.0008 19.1834L56.0255 19.1664L56.0347 19.1494L56.0471 19.1239V19.0871L56.0409 19.0588L56.0286 19.039L56.0131 19.0276L55.9946 19.0163L55.9669 19.0106L55.936 19.0078H55.9083H55.8712H55.6985V19.2145H55.5535Z" fill="white"/>
<path fill-rule="evenodd" clip-rule="evenodd" d="M55.029 19.2139L55.0228 19.245L55.0382 19.4008L55.0845 19.5452L55.1678 19.6755L55.2666 19.7802L55.39 19.8709L55.5288 19.9417L55.68 19.9841L55.8435 20.0011L56.007 19.9841L56.1581 19.9417L56.297 19.8709L56.4204 19.7802L56.5191 19.6755L56.6024 19.5452L56.6487 19.4008L56.6641 19.245L56.6579 19.2139H56.4852L56.4913 19.245L56.479 19.3753L56.442 19.4914L56.3864 19.5933L56.3093 19.684L56.2168 19.7604L56.1057 19.8199L55.9761 19.8567L55.8435 19.868L55.7108 19.8567L55.5812 19.8199L55.4702 19.7604L55.3776 19.684L55.3005 19.5933L55.2419 19.4914L55.2079 19.3753L55.1956 19.245V19.2139H55.029Z" fill="white"/>
<path fill-rule="evenodd" clip-rule="evenodd" d="M55.5535 19.2139V19.5395H55.6985V19.2733H55.8435L56.0193 19.5395H56.1335L55.9607 19.2733H56.0008L56.0409 19.262L56.0779 19.2507L56.1057 19.2309L56.118 19.2139H55.8712L55.8435 19.2195H55.6985V19.2139H55.5535Z" fill="white"/>
<path d="M55.6985 19.5399H55.5535V18.8914H55.8743L55.9453 18.897L56.0101 18.9084L56.0563 18.9254L56.0964 18.948L56.1242 18.9792L56.1489 19.0103L56.1612 19.0471L56.1674 19.0839L56.1612 19.1321L56.1489 19.1689L56.1304 19.2001L56.1057 19.2255L56.0779 19.2482L56.044 19.2595L56.0039 19.2709H55.9638L56.1396 19.537H56.0224L55.8465 19.2709H55.7015V19.537M55.8465 19.217L55.899 19.2057L55.9391 19.2001L55.973 19.1887L56.0008 19.1774L56.0255 19.1604L56.0378 19.1434L56.0502 19.1179V19.0811L56.044 19.0556L56.0317 19.033L56.0131 19.0216L55.9946 19.0103L55.9669 19.0047L55.9391 18.999H55.7015V19.2114H55.8465M55.0228 19.2454L55.0413 19.0896L55.0876 18.9452L55.1678 18.8178L55.2666 18.7045L55.39 18.6139L55.5288 18.5487L55.68 18.5062L55.8435 18.4893L56.007 18.5062L56.1581 18.5487L56.297 18.6139L56.4204 18.7045L56.5191 18.8178L56.5993 18.9452L56.6456 19.0896L56.6641 19.2454L56.6456 19.4011L56.5993 19.5455L56.5191 19.673L56.4204 19.7806L56.297 19.8712L56.1581 19.942L56.007 19.9845L55.8435 20.0015L55.68 19.9845L55.5288 19.942L55.39 19.8712L55.2666 19.7806L55.1678 19.673L55.0876 19.5455L55.0413 19.4011L55.0228 19.2454ZM55.8465 19.8599L55.9792 19.8485L56.1057 19.8117L56.2168 19.7523L56.3093 19.6758L56.3864 19.5852L56.4451 19.4832L56.479 19.3643L56.4913 19.2369L56.479 19.1094L56.4451 18.9905L56.3864 18.8829L56.3093 18.7923L56.2168 18.7186L56.1057 18.6648L55.9792 18.628L55.8465 18.6167L55.7139 18.628L55.5843 18.6648L55.4733 18.7186L55.3807 18.7923L55.3036 18.8829L55.245 18.9905L55.211 19.1094L55.1987 19.2369L55.211 19.3643L55.245 19.4832L55.3036 19.5852L55.3807 19.6758L55.4733 19.7523L55.5843 19.8117L55.7139 19.8485L55.8465 19.8599Z" stroke="white" stroke-width="0.22" stroke-miterlimit="2.61"/>
<path fill-rule="evenodd" clip-rule="evenodd" d="M44.8729 19.9475H46.5142L47.1035 16.9033L47.1281 16.7871L47.1621 16.6682L47.196 16.5521L47.2423 16.4332L47.3009 16.3171L47.3719 16.2038L47.4459 16.0962L47.5415 15.9942L47.6464 15.9036L47.7606 15.8186L47.8963 15.7394L48.0475 15.6742L48.2172 15.6204L48.4023 15.5779L48.6059 15.5468L48.8342 15.5355H48.9144H48.9607H48.9792L49.2414 14.1592L49.0779 14.1705L48.9206 14.1875L48.7756 14.213L48.6367 14.2526L48.5072 14.2951L48.3869 14.3461L48.2696 14.4056L48.1586 14.4707L48.0537 14.5443L47.9549 14.6208L47.8624 14.7057L47.7667 14.7907L47.6804 14.8813L47.594 14.9833L47.5045 15.0795L47.4243 15.1871L47.6002 14.2186H45.962L44.8729 19.9475Z" fill="white"/>
<path d="M44.8729 19.9475H46.5142L47.1035 16.9033L47.1281 16.7871L47.1621 16.6682L47.196 16.5521L47.2423 16.4332L47.3009 16.3171L47.3719 16.2038L47.4459 16.0962L47.5415 15.9942L47.6464 15.9036L47.7606 15.8186L47.8963 15.7394L48.0475 15.6742L48.2172 15.6204L48.4023 15.5779L48.6059 15.5468L48.8342 15.5355H48.9144H48.9607H48.9792L49.2414 14.1592L49.0779 14.1705L48.9206 14.1875L48.7756 14.213L48.6367 14.2526L48.5072 14.2951L48.3869 14.3461L48.2696 14.4056L48.1586 14.4707L48.0537 14.5443L47.9549 14.6208L47.8624 14.7057L47.7667 14.7907L47.6804 14.8813L47.594 14.9833L47.5045 15.0795L47.4243 15.1871L47.6002 14.2186H45.962L44.8729 19.9475Z" stroke="white" stroke-width="0.22" stroke-miterlimit="2.61"/>
<path fill-rule="evenodd" clip-rule="evenodd" d="M29.4442 19.9475H31.0855H31.1163L31.6747 16.9033L31.6994 16.7871L31.7272 16.6739L31.755 16.5606L31.7982 16.4558L31.8444 16.3482L31.903 16.2463L31.9709 16.15L32.0542 16.0594L32.1468 15.9772L32.2517 15.8979L32.3782 15.8356L32.5201 15.7762L32.6836 15.728L32.8625 15.6856L33.06 15.6572L33.2883 15.6431H33.3068L33.3284 15.6459L33.3592 15.6516H33.387L33.4178 15.6572L33.4394 15.6629L33.4579 15.6686H33.4641L33.4703 15.6459L33.4857 15.5836L33.5104 15.4873L33.5381 15.3684L33.5813 15.2296L33.6215 15.0795L33.6739 14.9294L33.7263 14.7794L33.7726 14.6802L33.8312 14.5783L33.8899 14.4763L33.9485 14.3857L34.0009 14.3036L34.041 14.2413L34.0688 14.2045L34.0811 14.1875H34.075L34.0503 14.1818L34.0225 14.1762L33.9824 14.1705H33.9423L33.896 14.1648L33.8528 14.1592H33.8127L33.6338 14.1705L33.4703 14.1875L33.3191 14.213L33.1772 14.247L33.0445 14.2894L32.9211 14.3433L32.8101 14.3971L32.7052 14.4594L32.6064 14.5302L32.5139 14.6094L32.4275 14.6887L32.338 14.7794L32.2517 14.8728L32.1714 14.9748L32.082 15.0795L31.9956 15.1871L32.2054 14.2186H30.5333L29.4442 19.9475Z" fill="white"/>
<path d="M29.4442 19.9475H31.0855H31.1163L31.6747 16.9033L31.6994 16.7871L31.7272 16.6739L31.755 16.5606L31.7982 16.4558L31.8444 16.3482L31.903 16.2463L31.9709 16.15L32.0542 16.0594L32.1468 15.9772L32.2517 15.8979L32.3782 15.8356L32.5201 15.7762L32.6836 15.728L32.8625 15.6856L33.06 15.6572L33.2883 15.6431H33.3068L33.3284 15.6459L33.3592 15.6516H33.387L33.4178 15.6572L33.4394 15.6629L33.4579 15.6686H33.4641L33.4703 15.6459L33.4857 15.5836L33.5104 15.4873L33.5381 15.3684L33.5813 15.2296L33.6215 15.0795L33.6739 14.9294L33.7263 14.7794L33.7726 14.6802L33.8312 14.5783L33.8899 14.4763L33.9485 14.3857L34.0009 14.3036L34.041 14.2413L34.0688 14.2045L34.0811 14.1875H34.075L34.0503 14.1818L34.0225 14.1762L33.9824 14.1705H33.9423L33.896 14.1648L33.8528 14.1592H33.8127L33.6338 14.1705L33.4703 14.1875L33.3191 14.213L33.1772 14.247L33.0445 14.2894L32.9211 14.3433L32.8101 14.3971L32.7052 14.4594L32.6064 14.5302L32.5139 14.6094L32.4275 14.6887L32.338 14.7794L32.2517 14.8728L32.1714 14.9748L32.082 15.0795L31.9956 15.1871L32.2054 14.2186H30.5333L29.4442 19.9475Z" stroke="white" stroke-width="0.22" stroke-miterlimit="2.61"/>
<path fill-rule="evenodd" clip-rule="evenodd" d="M55.0383 25.5742V25.5515L55.0846 25.4128L55.1679 25.291L55.2666 25.1834L55.39 25.0984L55.5289 25.0333L55.68 24.9965L55.8435 24.9795L56.0071 24.9965L56.1582 25.0333L56.2971 25.0984L56.4205 25.1834L56.5192 25.291L56.6025 25.4128L56.6488 25.5515V25.5742H56.4791L56.4421 25.4609L56.3865 25.359L56.3094 25.2683L56.2168 25.1947L56.1058 25.1352L55.9762 25.0984L55.8435 25.0871L55.7109 25.0984L55.5813 25.1352L55.4702 25.1947L55.3777 25.2683L55.3006 25.359L55.2419 25.4609L55.208 25.5742H55.0383Z" fill="#FAB51D"/>
<path fill-rule="evenodd" clip-rule="evenodd" d="M55.5535 25.5746V25.3877H55.8712H55.9422L56.007 25.3962L56.0533 25.4075L56.0934 25.4302L56.1242 25.4557L56.1458 25.4868L56.1581 25.5265L56.1643 25.5746H56.0471V25.5463L56.0409 25.5208L56.0286 25.4981L56.0131 25.4868L55.9946 25.4783L55.9669 25.4727L55.936 25.467H55.9083H55.8712H55.6985V25.5746H55.5535Z" fill="#FAB51D"/>
<path fill-rule="evenodd" clip-rule="evenodd" d="M55.0228 25.6903L55.0382 25.5742H55.2079V25.5799L55.1956 25.6903H55.0228Z" fill="#FAB51D"/>
<path fill-rule="evenodd" clip-rule="evenodd" d="M55.5535 25.6903V25.5742H55.6985V25.679H55.8435L55.8959 25.6705L55.936 25.6648L55.973 25.6535L56.0008 25.6422L56.0255 25.628L56.0347 25.611L56.0471 25.5827V25.5742H56.1643L56.1581 25.611L56.1458 25.6422L56.1304 25.6705L56.1057 25.6903H55.5535Z" fill="#FAB51D"/>
<path fill-rule="evenodd" clip-rule="evenodd" d="M56.4913 25.6903L56.479 25.5799V25.5742H56.6487L56.6641 25.6903H56.4913Z" fill="#FAB51D"/>
<path fill-rule="evenodd" clip-rule="evenodd" d="M55.0228 25.6904V25.7074L55.0382 25.8632L55.0845 26.0076L55.1678 26.135L55.2666 26.2483L55.39 26.3389L55.5288 26.4012L55.68 26.4465L55.8435 26.4607L56.007 26.4465L56.1581 26.4012L56.297 26.3389L56.4204 26.2483L56.5191 26.135L56.6024 26.0076L56.6487 25.8632L56.6641 25.7074V25.6904H56.4913V25.7074L56.479 25.8349L56.442 25.9538L56.3864 26.0557L56.3093 26.1464L56.2168 26.22L56.1057 26.2795L55.9761 26.3163L55.8435 26.3276L55.7108 26.3163L55.5812 26.2795L55.4702 26.22L55.3776 26.1464L55.3005 26.0557L55.2419 25.9538L55.2079 25.8349L55.1956 25.7074V25.6904H55.0228Z" fill="#FAB51D"/>
<path fill-rule="evenodd" clip-rule="evenodd" d="M55.5535 25.6904V26.0019H55.6985V25.7329H55.8435L56.0193 26.0019H56.1335L55.9607 25.7329H56.0008L56.0409 25.7244L56.0779 25.7131L56.1057 25.6904H55.5535Z" fill="#FAB51D"/>
</g>
<defs>
<clipPath id="clip0_4002_3586">
<rect width="58" height="32" fill="white"/>
</clipPath>
</defs>
</svg>
