<svg width="42" height="42" fill="none" xmlns="http://www.w3.org/2000/svg"><g clip-path="url(#a)"><path d="M42 21C42 9.402 32.598 0 21 0S0 9.402 0 21s9.402 21 21 21 21-9.402 21-21Z" fill="#ED812B"/><path d="M26.66 25.89c.887-.591 1.428-1.034 1.674-1.379.295-.394.295-.935.05-1.526-.247-.393-.591-.689-.985-.787-.59-.099-1.132.05-1.723.492l-.59.394c-.493.295-1.034.492-1.575.689a8.821 8.821 0 0 1-2.51.344c-.887 0-1.723-.098-2.51-.344-.591-.197-1.084-.394-1.576-.69l-.59-.393c-.591-.443-1.182-.59-1.674-.492-.492.098-.787.394-.984.787-.296.591-.296 1.132 0 1.526.197.345.787.788 1.673 1.378 1.034.69 2.51 1.132 4.48 1.33l-4.775 4.773c-.492.443-.59.936-.394 1.477.197.541.542.886 1.132 1.083.542.197 1.034.098 1.477-.345l3.74-3.74 3.79 3.79c.394.442.886.54 1.428.344a1.84 1.84 0 0 0 1.131-1.132c.198-.541.05-1.034-.344-1.477l-4.774-4.774c1.87-.197 3.347-.64 4.43-1.329ZM14.602 15.848c0 1.18.246 2.215.837 3.199.59.984 1.378 1.723 2.362 2.313.985.59 2.018.837 3.2.837 1.131 0 2.214-.246 3.198-.837a6.51 6.51 0 0 0 2.314-2.313 6.03 6.03 0 0 0 .886-3.2 6.026 6.026 0 0 0-.886-3.199 6.509 6.509 0 0 0-2.314-2.313A6.149 6.149 0 0 0 21 9.45a6.024 6.024 0 0 0-3.199.886c-.984.59-1.772 1.329-2.362 2.313-.591.985-.837 2.018-.837 3.2Zm3.248 0c0-.886.296-1.625.935-2.215.591-.59 1.33-.935 2.215-.935.837 0 1.575.344 2.215.935.59.59.935 1.329.935 2.215 0 .886-.344 1.624-.935 2.215-.64.59-1.378.885-2.215.885-.886 0-1.624-.295-2.215-.886-.64-.59-.935-1.328-.935-2.214Z" fill="#fff"/></g><defs><clipPath id="a"><path fill="#fff" d="M0 0h42v42H0z"/></clipPath></defs></svg>