<svg width="32" height="32" fill="none" xmlns="http://www.w3.org/2000/svg"><path d="M10.635 0c2.17 0 3.2.945 3.094 2.836a9.8 9.8 0 0 1-.13 1.547l-1.933 10.345c-.172 1.01-.752 1.88-1.74 2.61-.989.73-2.03 1.096-3.126 1.096H4.157c-1.719 0-2.932-.44-3.641-1.322A2.814 2.814 0 0 1 0 15.47c0-.623.15-1.31.451-2.063l3.835-9.7a6.754 6.754 0 0 1 1.998-2.643A4.87 4.87 0 0 1 9.378 0h1.257Zm3.674 13.406 3.835-9.7a6.632 6.632 0 0 1 2.03-2.643A4.826 4.826 0 0 1 23.235 0h1.257c1.354 0 2.202.29 2.546.87.365.58.548 1.182.548 1.805 0 .601-.043 1.17-.129 1.708l-1.934 10.345c-.171 1.01-.752 1.88-1.74 2.61s-2.03 1.096-3.126 1.096h-2.642c-1.72 0-2.933-.44-3.642-1.322a2.814 2.814 0 0 1-.516-1.643c0-.623.15-1.31.452-2.063Z" fill="#9BE931"/></svg>