<svg width="52" height="52" fill="none" xmlns="http://www.w3.org/2000/svg"><path d="M33 27.673c0 2.54-6.94 4.598-15.5 4.598-8.56 0-15.5-2.059-15.5-4.598v10.729C2 40.942 8.94 43 17.5 43c8.56 0 15.5-2.059 15.5-4.598v-10.73Z" fill="#A7DEFA"/><path d="M17.5 32.271c8.56 0 15.5-2.059 15.5-4.598V17.327c0 2.54-6.94 4.598-15.5 4.598-8.56 0-15.5-2.058-15.5-4.598v10.346c0 2.54 6.94 4.598 15.5 4.598Z" fill="#A7DEFA"/><path d="M17.5 21.925c8.56 0 15.5-2.058 15.5-4.598V6.598c0 2.54-6.94 4.598-15.5 4.598C8.94 11.196 2 9.138 2 6.598v10.73c0 2.539 6.94 4.597 15.5 4.597Z" fill="#A7DEFA"/><path d="M17.5 11.196c8.56 0 15.5-2.058 15.5-4.598S26.06 2 17.5 2C8.94 2 2 4.059 2 6.598c0 2.54 6.94 4.598 15.5 4.598Z" fill="#A7DEFA"/><path d="M33 27.673c0 2.54-6.94 4.598-15.5 4.598-8.56 0-15.5-2.059-15.5-4.598m31 0v10.729m0-10.73V17.328M2 27.673v10.729m0-10.73V17.328m31 21.075C33 40.942 26.06 43 17.5 43 8.94 43 2 40.941 2 38.402m31 0V6.598M2 38.402V6.598m31 10.73c0 2.539-6.94 4.597-15.5 4.597-8.56 0-15.5-2.058-15.5-4.598m31 0V6.598M2 17.328V6.597m31 0c0 2.54-6.94 4.598-15.5 4.598C8.94 11.196 2 9.138 2 6.598m31 0C33 4.058 26.06 2 17.5 2 8.94 2 2 4.059 2 6.598" stroke="#111" stroke-width="3"/><path d="M50 23.709c0 2.6-6.94 4.709-15.5 4.709-8.56 0-15.5-2.108-15.5-4.71C19 21.109 25.94 19 34.5 19c8.56 0 15.5 2.108 15.5 4.709Z" fill="#A7DEFA"/><path d="M34.5 39.405c8.56 0 15.5-2.108 15.5-4.709V23.71c0 2.6-6.94 4.709-15.5 4.709-8.56 0-15.5-2.108-15.5-4.71v10.988c0 2.6 6.94 4.71 15.5 4.71Z" fill="#A7DEFA"/><path d="M34.5 50c8.56 0 15.5-2.108 15.5-4.709V34.696c0 2.6-6.94 4.71-15.5 4.71-8.56 0-15.5-2.11-15.5-4.71v10.595C19 47.891 25.94 50 34.5 50Z" fill="#A7DEFA"/><path d="M50 45.291C50 47.891 43.06 50 34.5 50 25.94 50 19 47.892 19 45.291V34.696m31 10.595V23.71m0 21.582V34.696m0 0c0 2.6-6.94 4.71-15.5 4.71-8.56 0-15.5-2.11-15.5-4.71m31 0V23.71M19 34.696V23.71m31 0c0 2.6-6.94 4.709-15.5 4.709-8.56 0-15.5-2.108-15.5-4.71m31 0C50 21.109 43.06 19 34.5 19 25.94 19 19 21.108 19 23.709" stroke="#111" stroke-width="3"/></svg>