<svg width="240" height="120" fill="none" xmlns="http://www.w3.org/2000/svg"><rect x="1" y="1" width="238" height="118" rx="23" stroke="#4EBDF5" stroke-width="2"/><g clip-path="url(#a)"><path d="M51 44.82c5.955-2.242 11.888-4.542 17.828-6.82 3.086 3.92 6.222 7.803 9.322 11.713-.023.142-.064.424-.086.566-3.023-3.438-6.18-6.76-9.211-10.191a11.7 11.7 0 0 0-1.442.359c-4.473 1.462-8.99 2.787-13.474 4.21-.99.313-1.966.681-2.99.88l.052-.718Zm7.862-.41c3.335-1.14 6.663-2.302 10.014-3.399 1.334 1.533 2.808 2.939 4.199 4.42 1.65 1.783 3.35 3.521 5.043 5.266 0 .393-.009.788-.018 1.18-3.1-2.864-6.216-5.71-9.29-8.602-4.312 1.07-8.596 2.246-12.907 3.314-1.628.433-3.275.797-4.89 1.282l-.03-.725c2.612-.95 5.263-1.794 7.879-2.736Zm132.444-.178c2.83-.038 5.663-.007 8.496-.018-.054.905.069 2.154-.917 2.62-.96.226-1.963.143-2.942.163-1.225-.027-2.464.086-3.675-.128-1.06-.382-.946-1.734-.962-2.637Zm-124.899.82c.813-.251 1.63-.492 2.455-.689 3.08 2.69 6.18 5.356 9.27 8.031-.007.273-.025.82-.034 1.093-3.123-2.32-6.211-4.689-9.355-6.986-4.655.975-9.315 1.939-13.966 2.939-.69.214-1.367-.088-2.01-.296 4.51-1.479 9.104-2.695 13.64-4.092Zm-1.888 3.593c1.416-.397 2.84-.763 4.24-1.203 3.139 2.14 6.232 4.343 9.364 6.494-.007.393-.011.785-.016 1.178-2.872-1.688-5.755-3.356-8.63-5.038-.323-.153-.65-.44-1.032-.339-3.714.59-7.43 1.186-11.146 1.766-.262-.217-.527-.431-.789-.648a545.257 545.257 0 0 0 8.009-2.21Zm24.649 2.499c.748-.984 2.002-1.499 3.23-1.483 2.313 0 4.623 0 6.936.007-.004 6.087 0 12.177-.004 18.265.679.066 1.423.126 1.959.594.796.627 1.036 1.681 1.061 2.638-5.643.012-11.291.039-16.935-.013.121-.829.215-1.736.817-2.382.54-.614 1.394-.774 2.174-.844 0-4.688.004-9.379-.005-14.069-.011-.948.153-1.953.767-2.713Zm2.725 1.997c-.42.851-.453 1.815-.453 2.745.007 4.03-.003 8.058.007 12.088 1.614.002 3.23 0 4.844.002.007-5.03 0-10.056.005-15.083-1.469.063-2.975-.187-4.403.248Zm27.48-3.478c1.013-.002 2.028 0 3.041 0-.005 3.158.002 6.314-.005 9.47h4.781c-.016-3.157 0-6.31-.009-9.465 1.04-.007 2.08-.007 3.121.004 0 7.162-.01 14.327.004 21.491-1.042.023-2.085.016-3.127.007.014-2.894-.005-5.79.011-8.686a544.224 544.224 0 0 0-4.781-.002c.009 2.898-.009 5.794.012 8.69-1.018.007-2.037.01-3.055.002.019-7.17.005-14.34.007-21.51Zm27.813-.002c3.636.004 7.274 0 10.91.002.009 1.077.009 2.153.007 3.23h-3.958c.012 6.092-.007 12.185.009 18.28-1.017.004-2.034.006-3.049-.003.022-6.095 0-12.187.011-18.28h-3.937c.009-1.076.011-2.155.007-3.232v.003Zm42.899-.005c1.006.01 2.014.005 3.023.01 0 5.304-.007 10.608.004 15.913.046.837-.023 2.065.997 2.36 1.266.093 2.541.005 3.814.04.014-6.102.007-12.203 0-18.302 1.024-.023 2.051-.014 3.075-.014-.009 7.174 0 14.347-.005 21.52-2.452-.015-4.904 0-7.354-.004-1.893.02-3.556-1.675-3.551-3.535-.016-5.995-.005-11.993-.005-17.988h.002Zm-83.502.188c1.025-.255 2.099-.082 3.144-.129 1.332.02 2.812-.199 3.964.63 1.129.686 1.64 2.025 1.624 3.293.005 4.517 0 9.033 0 13.55.032 1.318-.495 2.74-1.697 3.424-1.204.851-2.742.495-4.117.565-1.202-.066-2.5.228-3.613-.364-1.209-.569-2.037-1.837-2.026-3.169 0-4.82-.004-9.64 0-14.46.005-1.57 1.191-2.968 2.717-3.34h.004Zm.778 3.257c-.276.512-.499 1.068-.461 1.661.007 3.844-.009 7.688.007 11.53.014.652.226 1.503.981 1.648 1.15.06 2.313.081 3.46-.023.794-.235.84-1.156.901-1.833.051-1.589-.004-3.18.023-4.77-.08-2.435.11-4.882-.134-7.31-.078-.3-.206-.585-.315-.872-1.451-.372-3-.33-4.462-.031Zm27.265-1.235c.55-1.318 1.974-2.144 3.39-2.151 1.211 0 2.423-.016 3.636.007 1.337.047 2.58.896 3.173 2.07.513 1.112.354 2.358.381 3.544-1.027 0-2.053 0-3.08.006-.073-.812.108-2.076-.923-2.347a7.776 7.776 0 0 0-3.449.149c-.167.447-.37.9-.356 1.388 0 3.69.009 7.383-.005 11.074.03.704-.107 1.56.461 2.104.584.392 1.321.237 1.985.275.613-.043 1.343.122 1.838-.34.529-.563.379-1.398.427-2.1 1.031.007 2.064.004 3.097.002-.027 1.075.124 2.192-.241 3.228-.486 1.442-2.001 2.49-3.538 2.406-1.289-.013-2.578.02-3.864-.016-1.798-.144-3.258-1.77-3.26-3.546-.037-4.358 0-8.717-.018-13.078-.005-.898-.032-1.835.346-2.675Zm26.456-2.149c2.343-.004 4.683 0 7.025-.006 1.46-.043 2.97.799 3.534 2.16.39.835.28 1.778.301 2.67-.023 1.576.034 3.151-.03 4.727-.121 1.776-1.795 3.196-3.563 3.23-1.414.01-2.828-.007-4.242.002.018 2.89-.005 5.78.013 8.67-1.015.011-2.03.011-3.045 0 .021-7.151.007-14.302.007-21.453Zm3.029 9.505c1.412-.02 2.826.045 4.238-.06.867-1.136.45-2.623.55-3.937.005-.804.043-2.05-.979-2.25-1.259-.183-2.543-.035-3.811-.084.009 2.11.004 4.22 0 6.331h.002Zm12.988-9.087c1.155-.639 2.512-.366 3.771-.42 1.2.052 2.484-.196 3.602.359 1.22.528 2.078 1.79 2.057 3.117.012 4.82.005 9.64.002 14.46.073 1.891-1.69 3.582-3.581 3.528-1.517-.011-3.036.02-4.55-.016-1.805-.126-3.24-1.763-3.294-3.521-.025-4.594.004-9.187-.014-13.78-.025-.621.114-1.226.237-1.829.418-.765.942-1.528 1.77-1.898Zm1.535 3.095c-.467.458-.424 1.164-.442 1.765v9.71c.014 1.007-.119 2.066.358 2.998.878.395 1.855.253 2.79.28.581-.027 1.257.101 1.733-.319.568-.704.454-1.66.473-2.503-.01-3.39 0-6.778 0-10.169-.019-.636-.014-1.424-.591-1.841-.614-.38-1.373-.224-2.055-.265-.758.039-1.613-.135-2.263.343h-.003ZM44.621 51.002c.963-.152 1.948-.158 2.9.09-.972.208-1.94.436-2.897.69-.003-.259-.003-.52-.003-.78Zm19.713.862c1.508-.361 2.99-.885 4.521-1.11 3.118 1.546 6.182 3.21 9.275 4.807-.01.39-.018.779-.025 1.17-3.116-1.321-6.269-2.553-9.412-3.809-3.002.445-6.033.684-9.042 1.075a15.81 15.81 0 0 0-.552-.79c1.761-.38 3.486-.912 5.235-1.343Zm-19.656.643c1.438-.447 2.909-.785 4.357-1.198 2.04.586 4.113 1.056 6.134 1.702.668.12 1.323.3 1.966.519-.237.006-.707.022-.942.029l.228.343c.313.027.623.077.93.145.398.372.642.87.94 1.318-1.712-.287-3.407-.723-5.134-.905-2.872.261-5.73.695-8.606.925.034-.158.102-.472.134-.63a161.47 161.47 0 0 1 6.896-1.936c1.446.19 2.865.596 4.286.93.132-.125.267-.249.4-.373-1.924-.113-3.728-.923-5.63-1.158-2.028.291-4.036.716-6.073.946l.114-.657Zm23.347 1.605c.356-.059.737-.21 1.092-.068 3.016 1.007 6.002 2.097 9.006 3.138l-.014 1.133c-2.61-.63-5.235-1.199-7.844-1.833-.525-.122-1.05-.277-1.592-.291-2.227 0-4.432.345-6.661.338-.24.057-.477.111-.716.165a65.797 65.797 0 0 1-.514-.855c2.405-.612 4.83-1.147 7.243-1.727Zm-23.433 2.797a543.542 543.542 0 0 1 9.297-1.732c1.503.16 2.988.492 4.487.707.527.305.65.977.908 1.485-1.809-.151-3.606-.593-5.431-.42-3.07.224-6.145.402-9.218.605-.014-.214-.027-.43-.043-.645Zm22.682.598c.678-.124 1.364-.409 2.062-.244 2.922.513 5.851.989 8.776 1.499l.009 1.135c-1.177-.052-2.354-.063-3.522-.216-1.442-.09-2.89-.057-4.323-.253-2.612-.12-5.228-.02-7.84.038l-.39-.767c1.72-.492 3.49-.779 5.228-1.192Zm-22.614 1.53c3.214-.356 6.414-.81 9.624-1.203 1.765-.302 3.545.059 5.308.194.191.529.385 1.057.586 1.583-4.243-.064-8.483.009-12.726.06-.956.136-1.92.113-2.876-.022.027-.205.054-.409.084-.612Zm24.43 1.341c3.009-.036 6.02-.018 9.03-.04-.002.383-.004.77-.004 1.153-3.01.339-6.017.722-9.028 1.052-1.985.002-3.976-.011-5.956-.174-.023-.206-.064-.616-.087-.822 2.021-.359 4.022-.837 6.045-1.169Zm-12.546 0c1.273-.05 2.546.002 3.821-.04.221.566.363 1.157.481 1.753-2.103.185-4.21.278-6.316.11-3.061-.105-6.124-.18-9.183-.281l-.367-.67c3.852-.312 7.719-.5 11.564-.872Zm-16.184.343c.52-.002 1.043-.038 1.56.025.281.291.505.63.746.95A15.71 15.71 0 0 1 40 61.84c.12-.373.244-.743.36-1.118Zm23.215 3.736c4.915-.327 9.698-1.571 14.534-2.427l.012 1.118c-2.915.853-5.83 1.708-8.748 2.55-.301.08-.611.147-.924.116-1.624-.104-3.239-.31-4.863-.407a44.46 44.46 0 0 1-.011-.95Zm-22.553-2.083c.639-.032 1.28-.068 1.92-.09.318.518.614 1.051.881 1.597-1.145.1-2.292.22-3.435.05.207-.521.422-1.038.634-1.557Zm10.087.95c3.289-.122 6.596.018 9.86-.483.099.591.19 1.182.286 1.774-1.323.248-2.658.634-4.02.47-2.73-.233-5.467-.43-8.197-.671-.762-.075-1.545-.034-2.29-.237-.327-.061-.327-.472-.489-.695 1.615-.081 3.244.047 4.85-.158Zm17.974 3.426c3.009-1.045 6.027-2.074 9.029-3.144.004.384.006.77.006 1.156-2.896 1.352-5.8 2.697-8.69 4.065-.306.142-.628.307-.974.226-1.59-.204-3.173-.434-4.763-.635l.023-.86c1.779-.338 3.61-.372 5.37-.808Zm-26.067-2c.424-.056.85-.097 1.277-.133.271.504.552 1 .83 1.499-1.583.47-3.21.185-4.801-.05.873-.478 1.653-1.248 2.694-1.316Zm26.367 5.15c2.92-1.54 5.826-3.106 8.734-4.661-.089.424.229 1.074-.28 1.307-2.975 1.96-6.018 3.814-8.978 5.792-1.855-.31-3.7-.655-5.548-1.002l.064-.847c1.686-.047 3.367-.176 5.05-.266.35.007.657-.172.958-.323Zm-21.75-3.932c3.507.047 7.013.24 10.519.275 1.104-.106 2.166-.453 3.261-.616a20.624 20.624 0 0 1-.095 1.591c-1.37.21-2.667 1.06-4.084.687-3.033-.36-6.053-.872-9.099-1.11a6.774 6.774 0 0 0-.501-.827Zm-7.337 2.178c1.735-.456 3.391-1.219 5.203-1.36.305.561.622 1.119.965 1.663-.856.25-1.748.61-2.651.392-1.175-.22-2.37-.352-3.517-.695Zm28.433 5.17a1048.6 1048.6 0 0 0 9.37-6.506c.012.384.023.77.037 1.153-2.671 2.183-5.372 4.327-8.062 6.49-.42.332-.814.709-1.286.968-1.204-.171-2.363-.584-3.572-.754l-.162-.088a40.65 40.65 0 0 1-2.532-.57c.114-.265.233-.527.356-.784 1.952-.043 3.9.108 5.85.09ZM57.26 68.97c1.42.129 2.736-.528 4.036-.995.009.52-.007 1.038-.02 1.557-1.125.43-2.243.87-3.368 1.294-2.79-.549-5.6-.973-8.394-1.49l-.394-.77c2.714.124 5.426.28 8.14.404Zm13.007 6.327c2.612-2.286 5.215-4.577 7.842-6.846l.014 1.14c-3.13 3.072-6.205 6.198-9.364 9.241a32.729 32.729 0 0 0-2.639-.78c-1.562-.466-3.14-.872-4.71-1.317l.356-.72c2.31.158 4.614.418 6.925.56.602-.318 1.058-.847 1.576-1.278Zm-24.41-5.841c.338-.05.694-.258 1.034-.145.349.492.618 1.036.942 1.544-.864.287-1.759.747-2.691.49-1.606-.355-3.192-.804-4.825-1.02 1.807-.522 3.734-.341 5.54-.87Zm22.911 10.455c3.1-3.282 6.25-6.521 9.332-9.823.012.388.018.778.023 1.167-3.157 3.55-6.186 7.214-9.366 10.744-2.927-1.02-5.908-1.876-8.864-2.81.237-.298.479-.594.725-.887 2.717.535 5.434 1.067 8.15 1.61Zm-11.097-8.11c1.198-.402 2.318-1 3.506-1.434-.182.48-.004 1.258-.6 1.486-1.017.505-2.062.964-3.097 1.43-.327.209-.708.041-1.05-.01-1.79-.425-3.597-.786-5.383-1.224a225.75 225.75 0 0 1-.41-.77c2.351.06 4.687.43 7.034.522Zm-11.825.542c.872.034 1.65-.416 2.487-.585.305.591.632 1.171.962 1.752-.696.228-1.343.645-2.076.733-2.322-.623-4.655-1.214-6.968-1.873 1.864-.075 3.73-.012 5.595-.027Zm10.933 1.975c1.357-.592 2.649-1.325 4.003-1.919-.23.515-.264 1.269-.916 1.442-1.276.556-2.498 1.226-3.776 1.781-1.065-.038-2.107-.395-3.166-.541-.465-.314-.595-.912-.85-1.38 1.58.113 3.127.522 4.705.617Zm-16.373-.084c.12.059.365.178.486.24 1.291.015 2.561.252 3.85.295 1.05.057 2.099.325 3.153.185.613-.21 1.19-.505 1.788-.754.397.705.79 1.411 1.172 2.122-.661.32-1.293.725-2.005.926-2.536-.759-5.034-1.653-7.561-2.445-.356-.084-.611-.35-.883-.569Zm15.75 2.242c1.365-.752 2.708-1.542 4.086-2.269-.11.86-.963 1.16-1.61 1.55-1.317.741-2.592 1.554-3.935 2.249-.461-.571-.92-1.142-1.369-1.722.928.086 1.962.84 2.829.192Z" fill="#fff"/></g><defs><clipPath id="a"><path fill="#fff" transform="translate(40 38)" d="M0 0h161v44H0z"/></clipPath></defs></svg>