<svg width="240" height="120" fill="none" xmlns="http://www.w3.org/2000/svg"><rect x="1" y="1" width="238" height="118" rx="23" stroke="#4EBDF5" stroke-width="2"/><g clip-path="url(#a)" fill-rule="evenodd" clip-rule="evenodd" fill="#fff"><path d="M129.719 70.792c3.731-.437 6.207-3.574 6.207-7.238 0-2.945-1.728-5.842-4.401-6.942-.194-2.463-.333-4.404-1.283-6.42 5.246.782 9.264 5.101 9.264 10.313 0 5.475-4.149 9.969-9.783 10.41v-.119l-.004-.004Zm-2.398-20.525c-3.731.437-6.207 3.575-6.207 7.242 0 2.945 1.732 5.838 4.402 6.942.189 2.467.333 4.408 1.286 6.423-5.246-.785-9.26-5.1-9.26-10.313 0-5.475 4.146-9.964 9.783-10.405v.115l-.004-.004Z"/><path d="M128.282 71h-.314c-1-2.02-1.147-4.194-1.356-6.38.05-.395.333-.67.62-.929l.283-.252c.376-.34.678-.681.678-1.167 0-1.407-2.832-2.052-2.832-5.5 0-2.56 1.398-5.142 3.413-6.776h.302c1 2.019 1.159 4.193 1.368 6.375-.051.397-.333.67-.62.926l-.283.249c-.38.34-.678.681-.678 1.17 0 1.408 2.832 2.052 2.832 5.501 0 2.564-1.398 5.142-3.413 6.78V71Zm1.108-16.551v2.622l.12-.1v-1.078l.252-.003v.833a.77.77 0 0 0 .201-.355c-.182-1.92-.329-4.02-1.143-5.809-1.937 1.67-2.991 4.138-2.991 6.22 0 1.774.713 2.641 1.872 3.804.469.474.961.993.961 1.693v7.15h-.256v-6.294l-.12.17v4.686h-.256v-4.4l-.12.114v2.845h-.252v-2.619l-.12.097v1.081h-.256v-.83c-.1.108-.182.23-.201.356.186 1.919.325 4.02 1.139 5.808 1.933-1.67 2.995-4.141 2.995-6.22 0-1.774-.713-2.64-1.868-3.804-.472-.474-.961-.996-.961-1.696v-7.15h.256v6.298l.12-.17v-4.69h.256v4.404l.12-.115V54.45h.252Zm-47.482-.452v-3.66H66.294v20.326h15.614v-3.634h-9.26v-5.564h8.28V57.89h-8.28v-3.893h9.26Zm94.588-3.66-8.42 20.326h4.534l1.79-4.623h8.853l1.925 4.623h4.832l-8.408-20.326h-5.106Zm-.709 12.384 3.041-7.79h.136l3.041 7.79h-6.218ZM44.43 70.663h5.48v-9.187h8.26v9.187h5.455V50.337H58.17v7.553h-8.26v-7.553h-5.48v20.326Zm-3.66-18.155c-.706-.838-1.74-1.464-2.906-1.827-1.167-.392-2.472-.34-3.747-.34H26v3.578h6.218c.895 0 1.79 0 2.252.237.46.26.488.782.488 1.304v2.47h-7.575v3.565h7.575v3.656c0 .652-.271 1.304-.814 1.618-.515.29-1.441.237-2.336.237H26v3.657h8.415c1.085 0 2.174-.052 3.232-.341 1.084-.26 2.088-.704 2.878-1.515.76-.808 1.356-2.012 1.356-3.212V55.408c0-1.044-.406-2.063-1.112-2.9Zm77.578 1.515v-3.686H102.49v20.326h6.218v-16.64h9.64Zm91.545-3.686v16.87h-4.153v-16.87h-5.106v16.87h-3.856v-16.87h-5.238v20.326H215V50.337h-5.107ZM90.083 63.91h2.58c1.167 0 2.364-.026 3.422-.363 1.058-.363 1.957-.908 2.607-1.556.651-.674 1.058-1.452 1.302-2.39a9.913 9.913 0 0 0 .299-2.96c-.028-.933-.19-1.737-.597-2.596-.434-.856-1.058-1.737-1.899-2.334-.813-.622-1.848-.933-2.878-1.14-1.058-.208-2.12-.234-3.177-.234h-7.2v20.326h5.541V63.91Zm3.042-10.669c.597.208 1.139.57 1.468 1.037.299.467.38 1.064.461 1.738.055.674.082 1.456 0 2.182-.054.7-.244 1.352-.57 1.84-.325.52-.813.882-1.386 1.12-.922.362-2.007.233-3.015.259v-8.461c.922.026 2.038-.078 3.042.285Zm54.87-2.904 5.831 12.517 5.827-12.517h6.889v20.326h-5.467V59.298l-5.296 11.365h-3.913l-5.289-11.365v11.365h-5.471V50.337h6.889Z"/></g><defs><clipPath id="a"><path fill="#fff" transform="translate(26 50)" d="M0 0h189v21H0z"/></clipPath></defs></svg>