<svg width="240" height="120" fill="none" xmlns="http://www.w3.org/2000/svg"><rect x="1" y="1" width="238" height="118" rx="23" stroke="#4EBDF5" stroke-width="2"/><g clip-path="url(#a)" fill="#fff"><path d="M151.591 65.192c-.389 0-.703-.297-.703-.664V53.223l.004-.046c.036-.335.334-.595.697-.595.363 0 .661.261.697.595l.004.046V64.53c0 .367-.316.663-.699.663v-.001Zm1.311-14.682h-2.625c-2.22 0-2.351 1.82-2.351 2.993V64.27c0 1.173.131 2.995 2.351 2.995h2.625c2.218 0 2.354-1.822 2.354-2.995V53.503c0-1.175-.138-2.993-2.354-2.993Zm-49.398 0h6.045v2.081h-2.878v14.673h-3.167V50.51Zm6.513 16.754h3.099l.296-4.454h1.497l.294 4.454h3.099l-1.653-16.754h-4.978l-1.654 16.754Zm3.506-6.295.548-8.381h.177l.544 8.381h-1.269Zm9.316.428v3.153c0 .432.315.554.496.554.296 0 .498-.265.498-.554v-3.894c0-.528-.091-1.101-1.268-1.101h-1.289v-1.842h1.333c.905 0 1.226-.22 1.226-1.244v-3.33c0-.29-.204-.55-.498-.55-.181 0-.497.119-.497.55v2.731h-3.17v-2.367c0-1.175.136-2.993 2.353-2.993h2.63c2.218 0 2.353 1.82 2.353 2.993v2.68c0 1.819-1.199 2.32-2.15 2.271v.169c2.126-.052 2.15 1.673 2.15 2.274v3.37c0 1.173-.133 2.995-2.353 2.995h-2.63c-2.217 0-2.353-1.822-2.353-2.995v-2.873h3.17l-.001.003Zm6.25-10.887h7.334v16.754h-2.957V52.59h-1.422v14.673h-2.955V50.51Zm9.631 16.754h3.169v-5.698h1.809c2.218 0 2.572-1.82 2.572-2.993v-5.07c0-1.175-.352-2.993-2.572-2.993h-4.98v16.754h.002Zm3.169-7.542v-7.133h.83c.344 0 .59.31.59.834v5.465c0 .524-.248.834-.59.834h-.83Zm23.478-9.212h4.122v16.754h-3.17V56.758h-.114l-1.63 10.506h-2.533l-1.631-10.506h-.115v10.506h-3.167V50.51h4.117l2.057 11.773 2.064-11.773Zm-68.623 1.704c-.038 1.697-.24 3.492-.491 4.561.091-1.846-.126-4.45-.548-6.484-.416-2.035-1.6-5.427-2.544-7-.873 1.497-1.95 4.433-2.512 6.982-.566 2.552-.582 5.636-.582 6.563-.15-.784-.524-3.562-.418-6.357.087-2.308.62-4.675.91-5.767 1.109-3.64 2.366-5.964 2.602-6.333.235.369 1.818 3.23 2.64 6.242a28.21 28.21 0 0 1 .945 7.594l-.002-.002Zm-3.567 13c-.49-.942-1.256-2.734-1.329-5.5-.018-2.676 1.037-4.972 1.346-5.45.275.476 1.184 2.476 1.294 5.21.071 2.674-.8 4.78-1.31 5.74Zm3.857-20.556c-.998-4.452-3.51-8.07-3.857-8.663-.546.832-2.55 4.026-3.565 7.574-1.11 3.953-1.272 7.462-.89 10.917.379 3.453 1.82 6.999 1.82 6.999.764 1.863 1.909 3.855 2.652 4.836 1.093-1.44 3.605-5.739 4.386-11.355.436-3.121.455-5.857-.546-10.308Z"/><path d="M87.035 67.262v5.268l.02-.026a4.613 4.613 0 0 1 6.568 0c1.814 1.835 1.814 4.814 0 6.645-.01.007-.017.015-.024.022l-.026.026a9.203 9.203 0 0 1-13.099-.022c-3.19-3.229-3.569-8.226-1.137-11.872.33-.495.706-.962 1.137-1.4a9.205 9.205 0 0 1 6.562-2.745v-12.56c-9.125 0-16.522 7.482-16.522 16.703s7.399 16.706 16.522 16.706c4.76 0 9.044-2.035 12.057-5.288v-11.46H87.036l-.001.003Zm79.495 12.793c0 1.594-.715 1.876-2.533 1.876h-1.674v-7.273h1.674v2.806h.277c1.645 0 2.256.387 2.256 1.844v.749-.002Zm-13.961-4.024h-1.268v5.905h-1.59v-5.905h-1.358v-1.38h4.216v1.38Zm-12.867 3.305c0 1.477-.745 1.874-2.39 1.874v.719h-1.626v-.72c-1.652 0-2.399-.396-2.399-1.873v-2.273c0-1.484.718-1.86 2.399-1.86v-.547h1.626v.546c1.672 0 2.39.377 2.39 1.861v2.273Zm-15.164-3.305h-2.289v1.43h2.048v1.382h-2.048v1.712h2.289v1.381h-4.016v-7.284h4.016v1.379Zm-13.871 5.9h-1.673v-3.183h-.861v3.183h-1.674v-7.273h1.674v2.806h.861v-2.806h1.673v7.273Zm58.82-9.086h-65.985v11.167h65.985V72.845ZM137.57 76.48h-.258v3.389h.258c.372 0 .507-.106.507-.534v-2.34c0-.427-.135-.515-.507-.515Zm26.797 2.265h-.37v1.902h.37c.376 0 .489-.098.489-.513v-.875c0-.417-.113-.512-.489-.512v-.002Zm-29.453-1.73v2.33c0 .425.133.524.505.524h.269V76.48h-.269c-.372 0-.505.108-.505.534Z"/></g><defs><clipPath id="a"><path fill="#fff" transform="translate(55 21)" d="M0 0h130v78H0z"/></clipPath></defs></svg>