<svg width="33" height="32" fill="none" xmlns="http://www.w3.org/2000/svg"><path d="M18.718 18.314C16.91 20.26 16.779 22.686 16.623 28c4.748 0 8.026-.017 9.718-1.731C27.984 24.503 28 20.92 28 16.129c-5.093.171-7.418.3-9.282 2.185ZM5 16.13c0 4.791.016 8.374 1.66 10.14C8.35 27.983 11.628 28 16.376 28c-.165-5.314-.288-7.74-2.095-9.686-1.864-1.885-4.19-2.023-9.282-2.185ZM16.377 4c-4.74 0-8.026.017-9.718 1.731C5.016 7.497 5 11.08 5 15.871c5.093-.171 7.418-.3 9.282-2.185C16.09 11.74 16.221 9.314 16.377 4Zm2.34 9.686C16.912 11.74 16.78 9.314 16.624 4c4.748 0 8.026.017 9.718 1.731C27.984 7.497 28 11.08 28 15.871c-5.093-.171-7.418-.3-9.282-2.185Z" fill="#fff"/><path d="M28 16.129v-.258c-5.093-.171-7.418-.3-9.282-2.185C16.91 11.74 16.779 9.314 16.623 4h-.246c-.165 5.314-.288 7.74-2.095 9.686-1.864 1.885-4.19 2.023-9.282 2.185v.258c5.093.171 7.418.3 9.282 2.185 1.807 1.946 1.939 4.372 2.095 9.686h.246c.165-5.314.288-7.74 2.095-9.686 1.864-1.885 4.19-2.023 9.282-2.185Z" fill="#000"/></svg>