<svg width="42" height="42" fill="none" xmlns="http://www.w3.org/2000/svg"><g clip-path="url(#a)"><path d="M21 42c11.598 0 21-9.402 21-21S32.598 0 21 0 0 9.402 0 21s9.402 21 21 21Z" fill="#fff"/><path d="M16.065 5.775C12.18 7.14 8.82 10.08 6.93 13.755c-.63 1.26-1.155 2.625-1.365 4.095-.735 3.465-.21 7.245 1.365 10.395a15.49 15.49 0 0 0 4.41 5.355c1.68 1.365 3.675 2.415 5.88 2.94 2.73.735 5.565.735 8.19.105a13.923 13.923 0 0 0 6.615-3.465c1.995-1.785 3.36-4.095 4.095-6.72.84-2.73.945-5.67.42-8.505H21.42v6.3h8.715c-.315 1.995-1.575 3.885-3.255 4.935-1.05.735-2.31 1.155-3.57 1.365-1.26.21-2.625.21-3.885 0-1.26-.21-2.52-.84-3.57-1.575-1.68-1.155-3.045-2.94-3.675-4.935-.735-1.995-.735-4.2 0-6.3.525-1.365 1.26-2.73 2.31-3.78a8.463 8.463 0 0 1 4.83-2.625c1.575-.315 3.15-.315 4.725.21 1.26.42 2.52 1.155 3.465 1.995l2.94-2.94 1.575-1.575c-1.47-1.365-3.255-2.52-5.145-3.255a17.311 17.311 0 0 0-10.815 0Z" fill="#fff"/><path d="M16.065 5.775c3.465-1.155 7.35-1.155 10.815.105 1.89.735 3.675 1.785 5.145 3.255L30.45 10.71l-2.94 2.94c-.945-.945-2.205-1.68-3.465-1.995-1.47-.42-3.15-.525-4.725-.21-1.785.42-3.465 1.365-4.83 2.625-1.05 1.05-1.89 2.415-2.31 3.78-1.785-1.365-3.465-2.73-5.25-4.095 1.89-3.675 5.25-6.615 9.135-7.98Z" fill="#EA4335"/><path d="M5.565 17.85c.315-1.365.735-2.73 1.365-4.095 1.785 1.365 3.465 2.73 5.25 4.095-.735 1.995-.735 4.2 0 6.3-1.785 1.365-3.465 2.73-5.25 4.095-1.575-3.255-2.1-6.93-1.365-10.395Z" fill="#FBBC05"/><path d="M21.314 17.955h15.12c.526 2.835.42 5.775-.42 8.505-.735 2.52-2.1 4.83-4.095 6.72-1.68-1.365-3.36-2.625-5.145-3.99 1.68-1.155 2.835-2.94 3.255-4.935h-8.715v-6.3Z" fill="#4285F4"/><path d="M6.93 28.245c1.785-1.365 3.465-2.73 5.25-4.095.63 1.995 1.995 3.78 3.675 4.935 1.05.735 2.31 1.26 3.57 1.575 1.26.21 2.52.21 3.885 0 1.26-.21 2.52-.735 3.57-1.365 1.68 1.365 3.36 2.625 5.145 3.99-1.89 1.68-4.095 2.835-6.615 3.465-2.73.63-5.565.63-8.19-.105-2.1-.525-4.095-1.575-5.88-2.94-1.785-1.575-3.36-3.465-4.41-5.46Z" fill="#34A853"/></g><defs><clipPath id="a"><path fill="#fff" d="M0 0h42v42H0z"/></clipPath></defs></svg>