<svg width="32" height="32" fill="none" xmlns="http://www.w3.org/2000/svg"><path d="M20.813 7.334V20.88c0 .534-.16 1.053-.454 1.494l-3.64 5.413c-.573.867-2 1.48-3.213 1.027-1.307-.44-2.173-1.907-1.893-3.214l.693-4.36c.053-.4-.053-.76-.28-1.04a1.24 1.24 0 0 0-.92-.413h-5.48c-1.053 0-1.96-.427-2.493-1.174-.507-.72-.6-1.653-.267-2.6l3.28-9.986c.413-1.653 2.213-3 4-3h5.2c.893 0 2.147.307 2.72.88l1.707 1.32a2.666 2.666 0 0 1 1.04 2.107Zm4.24 16.146h1.373c2.067 0 2.907-.8 2.907-2.774v-13.4c0-1.973-.84-2.773-2.906-2.773h-1.374c-2.067 0-2.907.8-2.907 2.774V20.72c0 1.96.84 2.76 2.907 2.76Z" fill="#9BE931"/></svg>