<svg width="24" height="24" fill="none" xmlns="http://www.w3.org/2000/svg"><path d="M9.749 11a2.25 2.25 0 1 1 4.5 0 2.25 2.25 0 0 1-4.5 0Z" fill="#4EBDF5"/><path fill-rule="evenodd" clip-rule="evenodd" d="M6.35 4.596C7.923 3.309 9.859 2.25 12 2.25s4.077 1.059 5.648 2.346c1.58 1.293 2.872 2.883 3.74 4.092l.072.1c.523.726.953 1.324.953 2.212 0 .888-.43 1.486-.953 2.212l-.071.1c-.869 1.21-2.16 2.798-3.74 4.092-1.572 1.287-3.508 2.346-5.649 2.346-2.14 0-4.077-1.059-5.648-2.346-1.58-1.294-2.872-2.883-3.74-4.092l-.072-.1c-.523-.726-.953-1.324-.953-2.212 0-.888.43-1.486.953-2.212l.071-.1c.869-1.21 2.16-2.799 3.74-4.092ZM12 7.25a3.75 3.75 0 1 0 0 7.5 3.75 3.75 0 0 0 0-7.5Z" fill="#4EBDF5"/></svg>