<svg width="42" height="42" fill="none" xmlns="http://www.w3.org/2000/svg"><g clip-path="url(#a)"><path d="M42 21C42 9.402 32.598 0 21 0S0 9.402 0 21s9.402 21 21 21 21-9.402 21-21Z" fill="#005FF9"/><mask id="b" style="mask-type:luminance" maskUnits="userSpaceOnUse" x="8" y="8" width="26" height="26"><path d="M33.6 8.4H8.4v25.2h25.2V8.4Z" fill="#fff"/></mask><g mask="url(#b)"><path fill-rule="evenodd" clip-rule="evenodd" d="M21.049 8.4c6.923.032 12.551 5.66 12.551 12.616 0 .97-.097 1.78-.258 2.588 0 0-.097.356-.13.518-.323 1.003-.873 1.811-1.617 2.393-.744.55-1.65.874-2.556.874h-.323c-1.294-.097-2.459-.776-3.138-1.876-1.197 1.229-2.815 1.876-4.53 1.876a6.365 6.365 0 0 1-6.372-6.373 6.365 6.365 0 0 1 6.373-6.373c3.526 0 6.34 2.847 6.34 6.373v2.07c0 1.197.81 1.683 1.489 1.747.679.065 1.585-.355 1.908-1.65a9.672 9.672 0 0 0 .227-2.167c0-5.532-4.497-10.028-9.996-10.028-5.532 0-10.029 4.496-10.029 10.028s4.497 10.028 10.029 10.028c1.908 0 3.784-.55 5.402-1.585l.032-.032 1.683 1.973-.033.033c-2.103 1.423-4.561 2.2-7.084 2.2-6.955 0-12.617-5.662-12.617-12.617C8.4 14.061 14.062 8.4 21.017 8.4h.032ZM24.8 21.016a3.79 3.79 0 0 1-3.784 3.785 3.79 3.79 0 0 1-3.785-3.785 3.79 3.79 0 0 1 3.785-3.785c2.07-.032 3.784 1.682 3.784 3.785Z" fill="#fff"/></g></g><defs><clipPath id="a"><path fill="#fff" d="M0 0h42v42H0z"/></clipPath></defs></svg>