<svg width="40" height="40" fill="none" xmlns="http://www.w3.org/2000/svg"><rect width="40" height="40" rx="20" fill="#4EBDF5"/><path d="M26.801 14.922a83.495 83.495 0 0 0-3.63-.277v-.008l-.165-.975c-.112-.69-.277-1.725-2.032-1.725h-1.965c-1.748 0-1.913.99-2.033 1.718l-.157.96c-.698.045-1.395.09-2.093.158l-1.53.15a.564.564 0 0 0-.51.614c.03.308.3.533.615.503l1.53-.15c3.93-.39 7.89-.24 11.865.157h.06a.568.568 0 0 0 .563-.51.575.575 0 0 0-.518-.615Zm-1.379 2.183a.948.948 0 0 0-.683-.293h-9.48a.936.936 0 0 0-.937.998l.465 7.695c.082 1.14.187 2.565 2.805 2.565h4.815c2.617 0 2.722-1.418 2.805-2.565l.465-7.688a.972.972 0 0 0-.255-.712Zm-4.178 7.207h-2.497a.567.567 0 0 1-.563-.562c0-.308.255-.563.563-.563h2.497c.308 0 .563.255.563.563a.567.567 0 0 1-.563.563Zm.63-3h-3.75a.567.567 0 0 1-.562-.562c0-.308.255-.563.562-.563h3.75c.308 0 .563.255.563.563a.567.567 0 0 1-.563.563Z" fill="#fff"/></svg>