<svg width="33" height="32" fill="none" xmlns="http://www.w3.org/2000/svg"><path fill-rule="evenodd" clip-rule="evenodd" d="M9.833 4A5.333 5.333 0 0 0 4.5 9.333v13.334A5.333 5.333 0 0 0 9.833 28h13.334a5.333 5.333 0 0 0 5.333-5.333V9.333A5.333 5.333 0 0 0 23.167 4H9.833Zm13.776 9.407a1.334 1.334 0 0 0-2.218-1.48c-.472.626-.967 1.226-1.546 1.76-.67.618-1.349 1.082-2.01 1.357l-.011-2.533a1.333 1.333 0 0 0-1.324-1.178c-.723.042-1.333.575-1.333 1.334v5.83c-2.598-.72-4-3.24-4-5.83a1.333 1.333 0 1 0-2.667 0c0 4.842 3.347 8.666 8 8.666A1.333 1.333 0 0 0 17.833 20v-2.084c1.776.141 3.499 1.396 4.142 2.68a1.333 1.333 0 1 0 2.384-1.192c-.638-1.276-1.827-2.47-3.291-3.248.197-.162.393-.332.587-.51.734-.67 1.39-1.42 1.954-2.24Z" fill="#fff"/></svg>