<svg width="32" height="32" fill="none" xmlns="http://www.w3.org/2000/svg"><g clip-path="url(#a)"><path d="M.683 15.932c0 2.71.707 5.356 2.053 7.687L.554 31.587l8.154-2.138a15.375 15.375 0 0 0 7.35 1.871h.007c8.477 0 15.377-6.897 15.38-15.376a15.28 15.28 0 0 0-4.5-10.878 15.284 15.284 0 0 0-10.88-4.51C7.585.557.685 7.455.682 15.933" fill="url(#b)"/><path d="M.134 15.927A15.9 15.9 0 0 0 2.26 23.89L0 32.143l8.446-2.214a15.925 15.925 0 0 0 7.614 1.939h.007c8.781 0 15.93-7.146 15.933-15.928a15.832 15.832 0 0 0-4.663-11.27A15.834 15.834 0 0 0 16.067 0C7.285 0 .137 7.145.134 15.927Zm5.03 7.547-.316-.5a13.204 13.204 0 0 1-2.024-7.046C2.827 8.628 8.767 2.69 16.072 2.69a13.157 13.157 0 0 1 9.363 3.882 13.159 13.159 0 0 1 3.875 9.367c-.003 7.3-5.944 13.238-13.243 13.238h-.005a13.227 13.227 0 0 1-6.74-1.845l-.484-.287-5.012 1.314 1.338-4.885Z" fill="url(#c)"/><path d="M12.085 9.268c-.299-.662-.612-.676-.896-.687-.232-.01-.498-.01-.763-.01s-.697.1-1.062.498c-.365.399-1.393 1.362-1.393 3.32 0 1.96 1.427 3.852 1.626 4.118.199.265 2.754 4.413 6.8 6.01 3.363 1.325 4.048 1.061 4.777.995.73-.066 2.356-.963 2.688-1.892.331-.93.331-1.727.232-1.893-.1-.166-.365-.266-.763-.465s-2.356-1.162-2.72-1.295c-.366-.133-.631-.199-.896.2-.266.398-1.028 1.294-1.26 1.56-.233.266-.465.3-.863.1-.399-.2-1.68-.62-3.202-1.976-1.183-1.055-1.982-2.358-2.215-2.757-.232-.398-.025-.614.175-.812.179-.178.398-.465.598-.697.198-.233.264-.399.397-.664.133-.266.066-.498-.033-.697-.1-.2-.873-2.168-1.227-2.956Z" fill="#fff"/></g><defs><linearGradient id="b" x1="1545.14" y1="3103.62" x2="1545.14" y2=".557" gradientUnits="userSpaceOnUse"><stop stop-color="#1FAF38"/><stop offset="1" stop-color="#60D669"/></linearGradient><linearGradient id="c" x1="1600" y1="3214.34" x2="1600" y2="0" gradientUnits="userSpaceOnUse"><stop stop-color="#F9F9F9"/><stop offset="1" stop-color="#fff"/></linearGradient><clipPath id="a"><path fill="#fff" d="M0 0h32v32H0z"/></clipPath></defs></svg>