<svg width="40" height="40" fill="none" xmlns="http://www.w3.org/2000/svg"><rect width="40" height="40" rx="20" fill="#4EBDF5"/><path d="M26.75 27.875h-13.5c-.307 0-.563-.34-.563-.75s.256-.75.563-.75h13.5c.308 0 .563.34.563.75s-.255.75-.563.75ZM25.265 13.61c-1.455-1.456-2.88-1.493-4.372 0l-.908.907c-.075.075-.105.195-.075.3a6.096 6.096 0 0 0 4.148 4.147.3.3 0 0 0 .308-.075l.9-.907c.742-.735 1.102-1.448 1.102-2.168.007-.742-.353-1.462-1.103-2.205Zm-2.558 6.037a8.33 8.33 0 0 1-.63-.33 6.6 6.6 0 0 1-.48-.315 4.529 4.529 0 0 1-.42-.322.915.915 0 0 1-.127-.113 6.343 6.343 0 0 1-.773-.78c-.022-.015-.06-.067-.112-.135-.075-.09-.203-.24-.315-.412a4.118 4.118 0 0 1-.293-.443 9.69 9.69 0 0 1-.33-.615c-.137-.295-.524-.382-.755-.152l-4.217 4.217a.903.903 0 0 0-.21.413l-.405 2.872c-.075.51.067.99.383 1.313.27.262.645.405 1.05.405.09 0 .18-.008.27-.023l2.88-.405a.835.835 0 0 0 .412-.21l4.224-4.224c.226-.226.141-.614-.152-.74Z" fill="#fff"/></svg>