<svg width="33" height="32" fill="none" xmlns="http://www.w3.org/2000/svg"><path d="M16.5 2.667C9.14 2.667 3.167 8.64 3.167 16S9.14 29.334 16.5 29.334 29.833 23.36 29.833 16c0-7.36-5.973-13.333-13.333-13.333Zm6.187 9.067c-.2 2.106-1.067 7.226-1.507 9.586-.187 1-.56 1.334-.907 1.374-.773.066-1.36-.507-2.106-1-1.174-.774-1.84-1.254-2.974-2-1.32-.867-.466-1.347.294-2.12.2-.2 3.613-3.307 3.68-3.587a.268.268 0 0 0-.067-.24c-.08-.067-.187-.04-.28-.027-.12.027-1.987 1.267-5.627 3.72-.533.36-1.013.547-1.44.534-.48-.014-1.386-.267-2.066-.494-.84-.266-1.494-.413-1.44-.88.026-.24.36-.48.986-.733 3.894-1.693 6.48-2.813 7.774-3.347 3.706-1.546 4.466-1.813 4.973-1.813.107 0 .36.027.52.16a.53.53 0 0 1 .187.36c-.014.08.013.32 0 .507Z" fill="#fff"/></svg>