<svg width="32" height="32" fill="none" xmlns="http://www.w3.org/2000/svg"><path d="M11.188 24.654V11.107a2.7 2.7 0 0 1 .453-1.494L15.28 4.2c.573-.867 2-1.48 3.213-1.027 1.307.44 2.174 1.907 1.893 3.214l-.693 4.36c-.053.4.053.76.28 1.04.227.253.56.413.92.413h5.48c1.053 0 1.96.427 2.494 1.174.506.72.6 1.653.266 2.6l-3.28 9.986c-.413 1.653-2.213 3-4 3h-5.2c-.893 0-2.146-.306-2.72-.88l-1.707-1.32a2.646 2.646 0 0 1-1.04-2.107ZM6.946 8.507H5.573c-2.067 0-2.907.8-2.907 2.773v13.414c0 1.973.84 2.773 2.907 2.773h1.373c2.067 0 2.907-.8 2.907-2.773V11.28c0-1.973-.84-2.773-2.907-2.773Z" fill="#9BE931"/></svg>