<svg width="58" height="32" fill="none" xmlns="http://www.w3.org/2000/svg"><g clip-path="url(#a)"><path fill-rule="evenodd" clip-rule="evenodd" d="m40.443 31.822.891-.023.88-.06.863-.102.858-.138.833-.176.82-.215.806-.25.787-.282.768-.323.746-.346.722-.385.704-.413.675-.445.654-.47.63-.498.598-.527.577-.552.543-.578.512-.6.484-.62.448-.646.42-.663.379-.685.352-.705.308-.723.272-.739.234-.753.191-.765.152-.787.11-.79.065-.81.025-.818-.025-.813-.064-.801-.111-.79-.152-.776-.19-.765-.235-.75-.272-.737-.308-.716-.352-.702-.38-.686-.42-.657-.447-.645-.484-.623-.512-.592-.543-.578-.577-.552-.598-.524-.63-.496-.654-.473-.675-.441-.704-.414-.722-.38-.746-.348-.768-.32-.787-.283-.805-.252-.821-.212-.833-.179-.858-.138-.863-.102-.88-.057-.891-.023-.886.023-.879.057-.86.102-.852.138-.833.179-.824.212-.796.252-.787.283-.765.32-.737.349-.725.38-.697.413-.676.441-.654.473-.623.496-.602.524-.57.552-.54.578-.513.592-.478.623-.45.645-.414.657-.382.686-.346.702-.308.716-.269.737-.231.75-.194.765-.151.776-.112.79-.061.801-.025.813.025.818.061.81.111.79.152.787.194.765.231.753.269.74.308.722.346.705.382.685.414.663.45.645.478.62.513.6.54.579.57.552.602.527.623.498.654.47.676.445.697.413.725.385.737.346.765.323.787.283.796.249.824.215.833.176.851.139.861.101.88.06.885.023Z" fill="#FAB51D"/><path fill-rule="evenodd" clip-rule="evenodd" d="m17.335 31.822.886-.023.879-.06.864-.102.851-.138.833-.176.82-.215.8-.25.787-.282.762-.323.74-.346.722-.385.7-.413.676-.445.65-.47.624-.498.602-.527.57-.552.543-.578.513-.6.478-.62.447-.646.413-.663.386-.685.343-.705.311-.723.265-.739.235-.753.191-.765.151-.787.111-.79.065-.81.025-.818-.025-.813-.065-.801-.11-.79-.152-.776-.191-.765-.235-.75-.265-.737-.311-.716-.343-.702-.386-.686-.413-.657-.447-.645-.479-.623-.512-.592-.543-.578-.57-.552-.602-.524-.623-.496-.651-.473-.676-.441-.7-.414-.722-.38-.74-.348-.762-.32-.787-.283-.8-.252-.82-.212-.833-.179-.851-.138L19.1.19l-.88-.057-.885-.023-.891.023-.88.057-.864.102-.854.138-.833.179-.824.212-.802.252-.787.283-.768.32-.746.349-.722.38-.707.413-.675.441-.651.473-.633.496-.598.524-.577.552-.543.578-.512.592-.485.623-.447.645-.42.657-.38.686-.348.702-.308.716-.275.737-.231.75-.195.765-.15.776-.112.79-.065.801-.021.813.021.818.065.81.111.79.151.787.195.765.231.753.275.74.308.722.349.705.38.685.419.663.447.645.485.62.512.6.543.579.577.552.598.527.633.498.65.47.676.445.707.413.722.385.746.346.768.323.787.283.802.249.824.215.833.176.854.139.864.101.88.06.891.023Z" fill="#E40520"/><path fill-rule="evenodd" clip-rule="evenodd" d="M26.868 6.19h9.175v-.86h-8.382l-.793.86Zm-1.376 1.915h10.551v-.861h-9.995l-.556.86Zm-1.024 1.911h11.575v-.86H24.875l-.407.86Zm-.706 1.914h12.281v-.86H24.055l-.293.86Zm.407 9.252h11.905v-.86H23.88l.29.86Zm.882 1.915h11.023v-.861H24.613l.438.86Zm1.234 1.911h9.79v-.864h-10.38l.59.864Zm1.703 1.914h8.086v-.866h-8.91l.824.866Zm-4.64-13.082h12.695v-.862H23.53l-.182.861Zm7.737 5.434h4.844v-.861h-4.668l-.175.86Zm.386-1.909h4.458v-.867h-4.282l-.176.867Zm-8.444-.867h1.259v.867h-1.2l-.059-.867Z" fill="#FAB51D"/><path fill-rule="evenodd" clip-rule="evenodd" d="m20.68 15.454-.08-.003-.084-.012-.074-.011-.077-.011-.068-.012-.077-.008-.077-.011-.08-.012-.08-.011-.096-.006-.105-.003-.111-.005h-.12l-.136.005-.152.009-.17.011-.113.017-.111.014-.1.034-.089.031-.08.037-.077.043-.059.054-.052.048-.034.06-.028.059-.012.065v.062l.018.07.022.069.046.07.059.069.117.102.139.082.163.068.176.06.185.053.195.06.191.062.185.07.176.091.163.113.146.133.123.165.093.204.058.24.022.29-.022.336-.04.252-.071.218-.092.204-.118.176-.132.155-.155.134-.16.119-.182.101-.185.08-.195.07-.197.054-.204.043-.197.031-.194.017-.192.008-.182.006h-.25l-.231-.006h-.204l-.194-.002-.173-.006-.157-.011-.142-.012-.133-.017-.123-.008-.111-.023-.111-.017-.099-.025-.099-.023-.092-.031-.093-.031-.098-.034.262-1.181.052.011.062.014.083.023.099.023.105.02.117.022.127.026.141.022.145.02.152.023.157.017.163.014.17.006.167.005h.17l.17-.005.169-.032.132-.042.105-.06.084-.076.055-.074.05-.085.027-.084.025-.083.01-.155-.053-.134-.099-.107-.145-.09-.176-.08-.203-.08-.226-.076-.228-.085-.234-.096-.22-.113-.203-.14-.188-.163-.145-.204-.105-.24-.053-.29.007-.342.027-.21.04-.195.06-.184.07-.17.093-.162.105-.139.123-.133.145-.119.17-.099.185-.088.21-.079.234-.06.262-.047.284-.037.315-.023.345-.006h.216l.198.006.178.006.164.005.148.012.133.011.117.011.105.009.099.011.08.017.077.012.068.008.059.011.052.006.052.011.05.006-.3 1.207Z" fill="#fff"/><path d="m20.68 15.454-.08-.003-.084-.012-.074-.011-.077-.011-.068-.012-.077-.008-.077-.011-.08-.012-.08-.011-.096-.006-.105-.003-.111-.005h-.12l-.136.005-.152.009-.17.011-.113.017-.111.014-.1.034-.089.031-.08.037-.077.043-.059.054-.052.048-.034.06-.028.059-.012.065v.062l.018.07.022.069.046.07.059.069.117.102.139.082.163.068.176.06.185.053.195.06.191.062.185.07.176.091.163.113.146.133.123.165.093.204.058.24.022.29-.022.336-.04.252-.071.218-.092.204-.118.176-.132.155-.155.134-.16.119-.182.101-.185.08-.195.07-.197.054-.204.043-.197.031-.194.017-.192.008-.182.006h-.25l-.231-.006h-.204l-.194-.002-.173-.006-.157-.011-.142-.012-.133-.017-.123-.008-.111-.023-.111-.017-.099-.025-.099-.023-.092-.031-.093-.031-.098-.034.262-1.181.052.011.062.014.083.023.099.023.105.02.117.022.127.026.141.022.145.02.152.023.157.017.163.014.17.006.167.005h.17l.17-.005.169-.032.132-.042.105-.06.084-.076.055-.074.05-.085.027-.084.025-.083.01-.155-.053-.134-.099-.107-.145-.09-.176-.08-.203-.08-.226-.076-.228-.085-.234-.096-.22-.113-.203-.14-.188-.163-.145-.204-.105-.24-.053-.29.007-.342.027-.21.04-.195.06-.184.07-.17.093-.162.105-.139.123-.133.145-.119.17-.099.185-.088.21-.079.234-.06.262-.047.284-.037.315-.023.345-.006h.216l.198.006.178.006.164.005.148.012.133.011.117.011.105.009.099.011.08.017.077.012.068.008.059.011.052.006.052.011.05.006-.3 1.207Z" stroke="#fff" stroke-width=".22" stroke-miterlimit="2.61"/><path fill-rule="evenodd" clip-rule="evenodd" d="M22.062 12.925h1.613l-.24 1.294h.974l-.21 1.209-1.024-.026-.561 2.982-.006.108.03.09.06.071.073.06.105.037.117.03.127.023.142.009.126-.003.117-.011.105-.017.093-.02.077-.023.052-.017.034-.008.013-.006-.204.994-.04.026-.043.022-.04.023-.04.02-.04.017-.047.014-.052.017-.053.017-.058.014-.059.012-.07.01-.069.012-.077.011-.086.009-.093.011-.102.012h-.44l-.235-.017-.204-.02-.185-.034-.157-.037-.136-.048-.108-.054-.102-.062-.074-.071-.059-.074-.04-.093-.03-.09-.016-.103-.006-.11v-.12l.015-.12.019-.134 1.114-5.836Z" fill="#fff"/><path d="M22.062 12.925h1.613l-.24 1.294h.974l-.21 1.209-1.024-.026-.561 2.982-.006.108.03.09.06.071.073.06.105.037.117.03.127.023.142.009.126-.003.117-.011.105-.017.093-.02.077-.023.052-.017.034-.008.013-.006-.204.994-.04.026-.043.022-.04.023-.04.02-.04.017-.047.014-.052.017-.053.017-.058.014-.059.012-.07.01-.069.012-.077.011-.086.009-.093.011-.102.012h-.44l-.235-.017-.204-.02-.185-.034-.157-.037-.136-.048-.108-.054-.102-.062-.074-.071-.059-.074-.04-.093-.03-.09-.016-.103-.006-.11v-.12l.015-.12.019-.134 1.114-5.836Z" stroke="#fff" stroke-width=".22" stroke-miterlimit="2.61"/><path fill-rule="evenodd" clip-rule="evenodd" d="m25.696 17.444-.016.09-.006.097.01.102.024.102.04.102.047.096.064.102.071.09.08.091.09.08.093.082.104.062.105.06.118.048.114.037.117.022.151.02.145.017.154.017.152.009.15.005h.158l.151-.005.158-.009.157-.023.157-.025.164-.034.157-.048.164-.06.166-.062.164-.085.17-.09-.235 1.313-.093.043-.092.042-.093.034-.09.032-.086.025-.092.028-.093.02-.098.017-.105.017-.117.011-.124.009-.133.011-.15.006h-.158l-.182.006h-.191l-.287-.006-.29-.026-.293-.04-.29-.062-.287-.082-.272-.101-.262-.134-.247-.155-.225-.182-.2-.218-.167-.246-.142-.283-.099-.317-.065-.357-.015-.397.028-.439.024-.17.034-.198.047-.21.064-.223.087-.23.105-.229.135-.238.164-.223.185-.213.228-.204.256-.18.29-.162.34-.133.38-.097.419-.065.472-.023.225.006.24.023.238.037.238.053.234.08.229.096.21.13.19.15.177.182.145.212.117.246.08.284.046.322.006.363-.04.408-.09.447-.027.326h-4.248l.268-1.054h2.552l.012-.133-.006-.127-.012-.12-.022-.104-.04-.102-.043-.09-.056-.083-.059-.073-.07-.065-.075-.054-.089-.048-.086-.043-.093-.031-.096-.023-.098-.014-.105-.011-.111.005-.105.015-.099.022-.099.031-.098.043-.087.048-.09.06-.073.065-.077.073-.068.082-.065.085-.053.091-.052.096-.04.108-.037.105-.022.113-.234 1.107Z" fill="#fff"/><path d="m25.696 17.444-.016.09-.006.097.01.102.024.102.04.102.047.096.064.102.071.09.08.091.09.08.093.082.104.062.105.06.118.048.114.037.117.022.151.02.145.017.154.017.152.009.15.005h.158l.151-.005.158-.009.157-.023.157-.025.164-.034.157-.048.164-.06.166-.062.164-.085.17-.09-.235 1.313-.093.043-.092.042-.093.034-.09.032-.086.025-.092.028-.093.02-.098.017-.105.017-.117.011-.124.009-.133.011-.15.006h-.158l-.182.006h-.191l-.287-.006-.29-.026-.293-.04-.29-.062-.287-.082-.272-.101-.262-.134-.247-.155-.225-.182-.2-.218-.167-.246-.142-.283-.099-.317-.065-.357-.015-.397.028-.439.024-.17.034-.198.047-.21.064-.223.087-.23.105-.229.135-.238.164-.223.185-.213.228-.204.256-.18.29-.162.34-.133.38-.097.419-.065.472-.023.225.006.24.023.238.037.238.053.234.08.229.096.21.13.19.15.177.182.145.212.117.246.08.284.046.322.006.363-.04.408-.09.447-.027.326h-4.248l.268-1.054h2.552l.012-.133-.006-.127-.012-.12-.022-.104-.04-.102-.043-.09-.056-.083-.059-.073-.07-.065-.075-.054-.089-.048-.086-.043-.093-.031-.096-.023-.098-.014-.105-.011-.111.005-.105.015-.099.022-.099.031-.098.043-.087.048-.09.06-.073.065-.077.073-.068.082-.065.085-.053.091-.052.096-.04.108-.037.105-.022.113-.234 1.107Z" stroke="#fff" stroke-width=".22" stroke-miterlimit="2.61"/><path fill-rule="evenodd" clip-rule="evenodd" d="m39.594 14.542-.077-.04-.074-.031-.083-.037-.087-.037-.09-.034-.098-.031-.099-.031-.104-.034-.111-.026-.112-.022-.12-.02-.123-.017-.133-.011-.136-.012h-.432l-.15.012-.158.017-.16.025-.164.043-.164.06-.163.075-.164.097-.157.116-.151.139-.145.172-.142.199-.127.235-.123.266-.111.3-.093.343-.033.192-.025.187-.013.187.007.181.018.182.04.172.053.159.065.161.086.145.105.138.123.125.14.11.156.097.182.082.198.068.222.048.074.017.09.017.104.009.114.01.13.012h.281l.145-.011.151-.017.151-.026.145-.036.145-.043.148-.06.133-.07.123-.085.118-.096-.263 1.427-.037.028-.034.031-.046.037-.052.034-.065.043-.08.036-.096.037-.105.034-.133.037-.15.026-.176.022-.204.02-.229.011-.262.006-.296-.006-.327-.017-.268-.025-.266-.054-.268-.08-.268-.107-.256-.127-.247-.162-.232-.187-.216-.215-.19-.24-.164-.267-.142-.3-.105-.326-.068-.36-.025-.379.013-.416.064-.445.047-.218.052-.215.059-.207.058-.198.062-.187.077-.187.077-.178.08-.164.087-.167.09-.156.098-.147.105-.142.105-.133.114-.127.117-.12.124-.11.132-.107.136-.102.139-.091.145-.085.157-.082.158-.068.163-.065.17-.06.182-.053.179-.043.188-.037.197-.031.198-.028.21-.02.21-.011.221-.006.186.006.182.01.172.015.176.023.164.022.157.031.151.026.14.034.135.031.117.031.108.034.096.031.08.026.07.023.053.022.034.009-.29 1.484Z" fill="#fff"/><path d="m39.594 14.542-.077-.04-.074-.031-.083-.037-.087-.037-.09-.034-.098-.031-.099-.031-.104-.034-.111-.026-.112-.022-.12-.02-.123-.017-.133-.011-.136-.012h-.432l-.15.012-.158.017-.16.025-.164.043-.164.059-.163.077-.164.096-.157.116-.151.139-.145.172-.142.199-.127.235-.123.266-.111.3-.093.343-.033.192-.025.187-.013.187.007.181.018.182.04.172.053.159.065.161.086.145.105.138.123.125.14.11.156.097.182.082.198.068.222.048.074.017.09.017.104.009.114.01.13.012h.281l.145-.011.151-.017.151-.026.145-.036.145-.043.148-.06.133-.07.123-.085.118-.096-.263 1.427-.037.028-.034.031-.046.037-.052.034-.065.043-.08.036-.096.037-.105.034-.133.037-.15.026-.176.022-.204.02-.229.011-.262.006-.296-.006-.327-.017-.268-.025-.266-.054-.268-.08-.268-.107-.256-.127-.247-.162-.232-.187-.216-.215-.19-.24-.164-.267-.142-.3-.105-.326-.068-.36-.025-.379.013-.416.064-.445.047-.218.052-.215.059-.207.058-.198.062-.187.077-.187.077-.178.08-.164.087-.167.09-.156.098-.147.105-.142.105-.133.114-.127.117-.12.124-.11.132-.107.136-.102.139-.091.145-.085.157-.082.158-.068.163-.065.17-.06.182-.053.179-.043.188-.037.197-.031.198-.028.21-.02.21-.011.221-.006.186.006.182.01.172.015.176.023.164.022.157.031.151.026.14.034.135.031.117.031.108.034.096.031.08.026.07.023.053.022.034.009-.29 1.484Z" stroke="#fff" stroke-width=".22" stroke-miterlimit="2.61"/><path fill-rule="evenodd" clip-rule="evenodd" d="M53.937 19.948h-1.614l.118-.595v-.054l-.093.108-.099.096-.098.085-.105.076-.105.068-.105.06-.105.048-.111.048-.111.037-.111.028-.111.026-.117.017-.115.017-.11.008-.118.006h-.117l-.303-.02-.28-.06-.256-.09-.232-.125-.21-.152-.188-.185-.163-.198-.139-.224-.117-.24-.093-.252-.065-.26-.046-.273-.018-.274.006-.278.03-.272.053-.274.087-.315.104-.3.124-.272.145-.257.151-.241.176-.213.179-.192.194-.179.204-.152.216-.136.219-.117.222-.09.234-.077.232-.048.234-.03.238-.012.17.005.163.017.151.026.139.037.136.042.117.051.114.057.105.06.093.064.089.068.074.071.071.068.059.07.052.069.046.065.034.065.41-2.101h1.583l-1.317 6.995Z" fill="#fff"/><path d="M53.937 19.948h-1.614l.118-.595v-.054l-.093.108-.099.096-.098.085-.105.076-.105.068-.105.06-.105.048-.111.048-.111.037-.111.028-.111.026-.117.017-.115.017-.11.008-.118.006h-.117l-.303-.02-.28-.06-.256-.09-.232-.125-.21-.152-.188-.185-.163-.198-.139-.224-.117-.24-.093-.252-.065-.26-.046-.273-.018-.274.006-.278.03-.272.053-.274.087-.315.104-.3.124-.272.145-.257.151-.241.176-.213.179-.192.194-.179.204-.152.216-.136.219-.117.222-.09.234-.077.232-.048.234-.03.238-.012.17.005.163.017.151.026.139.037.136.042.117.051.114.057.105.06.093.064.089.068.074.071.071.068.059.07.052.069.046.065.034.065.41-2.101h1.583l-1.317 6.995Z" stroke="#fff" stroke-width=".22" stroke-miterlimit="2.61"/><path fill-rule="evenodd" clip-rule="evenodd" d="m51.3 18.654.163-.012.15-.031.14-.04.135-.056.12-.065.118-.08.111-.09.099-.097.086-.107.083-.12.075-.12.064-.128.059-.136.046-.14.04-.143.031-.145.028-.15.018-.153v-.144l-.006-.15-.018-.14-.022-.135-.04-.128-.05-.121-.055-.108-.07-.102-.078-.085-.086-.076-.1-.063-.104-.042-.111-.028-.123-.012-.158.012-.145.022-.132.043-.136.053-.117.069-.115.084-.098.094-.099.099-.09.119-.08.122-.077.13-.065.139-.055.144-.05.145-.046.155-.034.153-.028.235.01.258.043.263.074.25.117.22.151.176.192.119.234.043Z" fill="#FAB51D"/><path fill-rule="evenodd" clip-rule="evenodd" d="m15.518 18.761-.234 1.187h-1.469l.043-.221.028-.196.025-.15.021-.082-.08.088-.092.085-.111.08-.124.076-.139.073-.148.065-.151.063-.157.053-.167.049-.17.036-.17.034-.175.02-.167.012-.17.005-.163-.017-.157-.02-.204-.048-.188-.053-.16-.071-.149-.08-.126-.085-.117-.096-.093-.102-.083-.107-.068-.114-.059-.116-.046-.119-.037-.116-.021-.124-.019-.122-.012-.12v-.115l.018-.21.034-.198.059-.187.077-.181.092-.17.105-.156.124-.15.139-.133.145-.125.163-.11.17-.102.172-.088.189-.074.19-.059.198-.048.207-.031h.01l.03-.006.04-.006.065-.005.068-.009.083-.005.087-.012.098-.011.1-.011.1-.009.106-.006.092-.01.093-.006.086-.006.084-.006h.197l.139.006.13.005h.126l.105.006.083.006.059.005h.015l.012-.04.034-.095.031-.11.013-.103-.025-.119-.053-.104-.07-.097-.093-.082-.111-.068-.12-.048-.142-.034-.152-.008-.163-.006-.173-.006h-.182l-.185.006-.194.008-.185.017-.185.017-.182.02-.176.023-.167.025-.154.029-.139.025-.127.034-.104.031-.084.037-.065.031.414-1.288.13-.049.129-.042.139-.037.139-.025.142-.029.15-.02.152-.022.157-.011.164-.012.166-.003.176-.005h.559l.203.005.207.003.16.012.176.028.182.037.185.048.182.062.173.077.176.09.163.102.146.116.13.13.113.145.09.159.058.172.034.182v.204l-.034.212-.589 2.826Z" fill="#fff"/><path d="m15.518 18.761-.234 1.187h-1.469l.043-.221.028-.196.025-.15.021-.082-.08.088-.092.085-.111.08-.124.076-.139.073-.148.065-.151.063-.157.053-.167.049-.17.036-.17.034-.175.02-.167.012-.17.005-.163-.017-.157-.02-.204-.048-.188-.053-.16-.071-.149-.08-.126-.085-.117-.096-.093-.102-.083-.107-.068-.114-.059-.116-.046-.119-.037-.116-.021-.124-.019-.122-.012-.12v-.115l.018-.21.034-.198.059-.187.077-.181.092-.17.105-.156.124-.15.139-.133.145-.125.163-.11.17-.102.172-.088.189-.074.19-.059.198-.048.207-.031h.01l.03-.006.04-.006.065-.005.068-.009.083-.005.087-.012.098-.011.1-.011.1-.009.106-.006.092-.01.093-.006.086-.006.084-.006h.197l.139.006.13.005h.126l.105.006.083.006.059.005h.015l.012-.04.034-.095.031-.11.013-.103-.025-.119-.053-.104-.07-.097-.093-.082-.111-.068-.12-.048-.142-.034-.152-.008-.163-.006-.173-.006h-.182l-.185.006-.194.008-.185.017-.185.017-.182.02-.176.023-.167.025-.154.029-.139.025-.127.034-.104.031-.084.037-.065.031.414-1.288.13-.049.129-.042.139-.037.139-.025.142-.029.15-.02.152-.022.157-.011.164-.012.166-.003.176-.005h.559l.203.005.207.003.16.012.176.028.182.037.185.048.182.062.173.077.176.09.163.102.146.116.13.13.113.145.09.159.058.172.034.182v.204l-.034.212-.589 2.826Z" stroke="#fff" stroke-width=".22" stroke-miterlimit="2.61"/><path fill-rule="evenodd" clip-rule="evenodd" d="m14.114 17.365-.006-.028-.024-.026-.034-.017-.06-.011-.064-.009-.074-.005h-.176l-.092.005-.099.009-.096.011-.092.011-.087.012-.08.014-.07.017-.066.017-.04.009-.046.016-.065.023-.065.026-.074.03-.077.04-.08.037-.077.043-.08.053-.077.054-.071.063-.062.065-.059.07-.04.074-.037.085-.015.088-.006.181.027.145.059.104.077.082.087.054.098.031.093.017.092.006.176-.006.158-.017.15-.022.137-.031.114-.037.11-.048.1-.049.089-.059.074-.054.07-.062.06-.06.046-.065.04-.062.034-.065.03-.06.02-.059.045-.153.04-.178.035-.17.03-.139Z" fill="#E40520"/><path fill-rule="evenodd" clip-rule="evenodd" d="M3.258 19.948H1.672l1.324-7.023H5.75l.265 4.165 1.903-4.165h2.879l-1.351 7.023H7.86L8.864 14.7h-.065l-2.37 5.248H4.64l-.012-.221-.04-.58-.053-.83-.059-.952-.058-.957-.053-.841-.04-.61-.012-.257h-.086l-.97 5.248Z" fill="#fff"/><path d="M3.258 19.948H1.672l1.324-7.023H5.75l.265 4.165 1.903-4.165h2.879l-1.351 7.023H7.86L8.864 14.7h-.065l-2.37 5.248H4.64l-.012-.221-.04-.58-.053-.83-.059-.952-.058-.957-.053-.841-.04-.61-.012-.257h-.086l-.97 5.248Z" stroke="#fff" stroke-width=".22" stroke-miterlimit="2.61"/><path fill-rule="evenodd" clip-rule="evenodd" d="m44.435 18.761-.238 1.187h-1.462l.01-.221.005-.193v-.144l.013-.063-.074.08-.09.079-.105.076-.117.074-.12.07-.142.066-.145.062-.145.054-.158.043-.163.042-.164.028-.163.02-.167.012-.163.005-.157-.017-.158-.02-.21-.048-.188-.053-.163-.071-.151-.08-.127-.085-.111-.096-.093-.102-.083-.107-.068-.114-.052-.116-.05-.119-.027-.116-.025-.124-.015-.122-.013-.12v-.115l.013-.21.034-.198.052-.187.077-.181.086-.17.111-.156.124-.15.133-.133.15-.125.158-.11.17-.102.179-.088.182-.074.191-.059.194-.048.198-.031h.012l.028-.006.04-.006.059-.005.077-.009.08-.005.086-.012.096-.011.099-.011.105-.009.098-.006.099-.01.093-.006.083-.006.08-.006h.204l.142.006.132.005h.127l.11.006.096.006.053.005h.021l.013-.04.018-.095.016-.11.012-.103-.024-.119-.047-.104-.074-.097-.09-.082-.104-.068-.12-.048-.13-.034-.139-.008-.163-.006-.176-.006h-.18l-.187.006-.192.008-.185.017-.188.017-.179.02-.176.023-.17.025-.15.029-.14.025-.13.034-.104.031-.08.037-.065.031.407-1.288.13-.049.133-.042.135-.037.14-.025.144-.029.145-.02.151-.022.16-.011.161-.012.17-.003.17-.005h.548l.197.005.197.003.164.012.176.028.179.037.185.048.182.062.182.077.173.09.163.102.145.116.136.13.117.145.087.159.064.172.04.182v.204l-.03.212-.611 2.826Z" fill="#fff"/><path fill-rule="evenodd" clip-rule="evenodd" d="m44.197 19.984.034-.03.238-1.187-.068-.012-.24 1.187.036-.031v.073l.028-.005.006-.026-.034.031Z" fill="#fff"/><path fill-rule="evenodd" clip-rule="evenodd" d="m42.698 19.948.037.036h1.462v-.073h-1.462l.034.037h-.071l-.006.036h.043l-.037-.036Z" fill="#fff"/><path fill-rule="evenodd" clip-rule="evenodd" d="m42.79 19.347-.049-.042-.025.085-.006.144v.193l-.012.22h.07l.013-.22.01-.193-.004-.144v-.043l-.052-.042.055.042Z" fill="#fff"/><path fill-rule="evenodd" clip-rule="evenodd" d="m40.526 20.033.163.022.158.014.163-.005.167-.009.17-.022.163-.026.164-.042.163-.046.145-.05.151-.066.14-.065.122-.074.124-.076.105-.074.092-.085.074-.082-.055-.042-.077.082-.08.073-.105.074-.111.077-.124.065-.139.062-.142.065-.145.054-.15.043-.164.042-.164.025-.157.023-.167.011-.163.006-.157-.017-.152-.023-.012.066Z" fill="#fff"/><path fill-rule="evenodd" clip-rule="evenodd" d="m39.116 18.413.006.116.01.119.018.127.025.125.028.116.046.125.052.121.077.114.08.11.093.102.117.102.136.085.151.088.167.068.194.053.21.049.012-.066-.21-.048-.181-.05-.158-.072-.151-.073-.123-.088-.105-.09-.093-.102-.08-.102-.065-.11-.052-.114-.047-.11-.03-.12-.022-.121-.018-.12-.013-.118.006-.116h-.08Zm2.092-2.053-.204.03-.2.049-.192.06-.185.073-.182.085-.176.108-.157.113-.151.127-.139.133-.123.15-.114.162-.09.175-.074.182-.052.192-.037.204-.016.21h.08l.007-.21.033-.192.053-.182.077-.18.086-.168.105-.15.124-.15.13-.133.15-.116.158-.114.163-.096.18-.085.175-.076.191-.057.185-.048.195-.034v-.062Zm1.2-.114h-.065l-.08.012-.083.005-.093.006-.099.009-.098.005-.105.011-.099.012-.096.011-.086.009-.08.005-.077.012-.059.005-.046.006-.022.006h-.012v.062h.012l.034-.006.034-.003.059-.005.077-.012.08-.005.086-.011.096-.012.099-.008.105-.012.098-.005.099-.012.093-.005.083-.006h.145v-.074Z" fill="#fff"/><path fill-rule="evenodd" clip-rule="evenodd" d="m43.194 16.306.034-.029h-.021l-.053-.005-.095-.003-.111-.011h-.259l-.142-.012h-.14v.074h.283l.132.011h.237l.096.006.053.006h.021l.034-.026-.034.026.031.005.003-.03-.068-.012Z" fill="#fff"/><path fill-rule="evenodd" clip-rule="evenodd" d="M43.253 15.963h-.006l-.006.102-.019.108-.015.096-.012.037.068.011.012-.04.018-.096.019-.116.015-.102h-.074Z" fill="#fff"/><path fill-rule="evenodd" clip-rule="evenodd" d="M42.559 15.434v.005l.133.006.123.031.117.048.099.065.08.074.071.09.046.097.025.113h.068l-.022-.124-.046-.117-.083-.101-.093-.085-.11-.077-.127-.048-.136-.031-.145-.017v.071Z" fill="#fff"/><path fill-rule="evenodd" clip-rule="evenodd" d="m40.06 15.691.059.031.055-.028.077-.037.1-.03.129-.032.139-.028.15-.026.17-.028.17-.02.179-.023.188-.017.185-.014.192-.011h.542l.164.006v-.066l-.163-.005-.176-.009h-.18l-.187.009-.192.011-.185.017-.188.014-.179.023-.182.023-.17.025-.15.026-.14.028-.13.031-.11.034-.087.037-.07.037.058.03-.068-.008Z" fill="#fff"/><path fill-rule="evenodd" clip-rule="evenodd" d="m40.492 14.374-.025.026-.407 1.291.068.009.41-1.289-.024.029-.022-.066-.018.006-.007.02.025-.026Z" fill="#fff"/><path fill-rule="evenodd" clip-rule="evenodd" d="m43.084 14.128-.198-.011-.197-.006h-.549l-.17.011-.17.006-.16.011-.16.012-.155.02-.148.022-.145.026-.139.028-.142.037-.133.042-.126.048.022.066.13-.048.132-.046.13-.037.138-.025.145-.028.145-.02.145-.023.16-.008.161-.012.17-.005h.719l.197.005h.197v-.065Z" fill="#fff"/><path fill-rule="evenodd" clip-rule="evenodd" d="m45.083 15.94.027-.217v-.204l-.04-.187-.065-.176-.092-.167-.117-.15-.14-.133-.144-.116-.17-.102-.176-.096-.185-.077-.182-.062-.191-.048-.182-.04-.179-.025-.163-.012v.065l.163.012.17.025.179.037.182.048.179.065.175.074.176.088.154.099.149.119.126.121.117.14.084.155.061.167.043.176v.204l-.03.209.07.008Z" fill="#fff"/><path fill-rule="evenodd" clip-rule="evenodd" d="m44.469 18.767.614-2.826-.071-.009-.611 2.823.068.012Z" fill="#fff"/><path fill-rule="evenodd" clip-rule="evenodd" d="m43.025 17.365-.012-.034-.022-.026-.043-.017-.056-.014-.065-.005-.077-.006h-.086l-.086.006-.096.008-.093.011-.092.012-.086.011-.09.014-.074.012-.077.017-.059.01-.04.007-.046.014-.059.017-.065.02-.074.034-.07.03-.08.037-.078.049-.074.048-.077.06-.065.059-.065.068-.049.076-.043.08-.034.084-.019.094-.006.181.031.145.046.104.071.082.087.054.098.031.1.017.098.006.176-.006.163-.017.151-.025.133-.04.13-.042.11-.048.106-.054.092-.063.08-.059.071-.07.065-.063.053-.07.04-.063.027-.065.025-.065.018-.06.022-.147.031-.156.022-.15.012-.133Z" fill="#FAB51D"/><path fill-rule="evenodd" clip-rule="evenodd" d="m55.03 19.214.008-.122.047-.144.083-.13.099-.11.123-.091.139-.066.151-.042.163-.017.164.017.151.043.139.065.123.09.1.11.082.131.047.144.009.122h-.173l-.006-.096-.037-.116-.056-.108-.077-.09-.092-.077-.111-.054-.13-.036-.133-.012-.132.012-.13.036-.11.054-.093.076-.078.091-.058.108-.034.116-.012.096h-.167Z" fill="#fff"/><path fill-rule="evenodd" clip-rule="evenodd" d="M55.553 19.214v-.32h.318l.071.006.065.011.046.014.04.023.031.031.022.031.012.04.006.037-.006.048-.012.037-.016.03-.012.012h-.247l.025-.005.04-.006.037-.009.028-.011.025-.017.009-.017.012-.026v-.036l-.006-.029-.012-.02-.016-.01-.018-.012-.028-.006-.03-.003h-.238v.207h-.145Zm-.523 0-.007.031.015.156.047.145.083.13.099.105.123.09.139.071.151.042.163.017.164-.017.151-.042.139-.07.123-.091.1-.105.082-.13.047-.145.015-.156-.006-.03h-.173l.006.03-.012.13-.037.117-.056.102-.077.09-.092.077-.111.06-.13.036-.133.011-.132-.011-.13-.037-.11-.06-.093-.076-.078-.09-.058-.102-.034-.116-.012-.13v-.032h-.167Z" fill="#fff"/><path fill-rule="evenodd" clip-rule="evenodd" d="M55.553 19.214v.326h.146v-.266h.145l.175.266h.114l-.172-.266H56l.04-.012.037-.011.028-.02.012-.017h-.247l-.028.006h-.145v-.006h-.145Z" fill="#fff"/><path d="M55.699 19.54h-.145v-.649h.32l.071.006.065.011.046.017.04.023.028.031.025.031.012.037.006.037-.006.048-.012.037-.019.031-.024.026-.028.022-.034.011-.04.012h-.04l.176.266h-.117l-.176-.266h-.145v.266m.145-.32.052-.011.04-.006.034-.011.028-.012.025-.017.012-.017.012-.025v-.037l-.006-.025-.012-.023-.019-.011-.018-.012-.028-.005-.028-.006h-.237v.212h.145m-.824.034.018-.155.047-.145.08-.127.099-.114.123-.09.139-.065.151-.043.163-.017.164.017.151.043.139.065.123.09.1.114.08.127.046.145.018.155-.018.156-.047.145-.08.127-.099.108-.123.09-.139.07-.151.043-.163.017-.164-.017-.151-.042-.139-.07-.123-.091-.1-.108-.08-.127-.046-.145-.018-.156Zm.824.615.132-.011.127-.037.11-.06.093-.076.078-.09.058-.103.034-.119.012-.127-.012-.128-.034-.119-.059-.107-.077-.09-.092-.074-.111-.054-.127-.037-.132-.011-.133.011-.13.037-.11.054-.093.073-.077.09-.059.108-.034.12-.012.127.012.127.034.12.059.101.077.09.092.077.111.06.13.037.133.01Z" stroke="#fff" stroke-width=".22" stroke-miterlimit="2.61"/><path fill-rule="evenodd" clip-rule="evenodd" d="M44.873 19.948h1.641l.59-3.045.024-.116.034-.119.034-.116.046-.119.059-.116.07-.113.075-.108.096-.102.104-.09.114-.085.136-.08.151-.065.17-.053.185-.043.204-.031.228-.011h.145l.262-1.377-.163.012-.158.017-.145.025-.138.04-.13.042-.12.051-.117.06-.112.065-.104.073-.1.077-.092.085-.095.085-.087.09-.086.102-.09.097-.08.107.176-.968h-1.638l-1.09 5.729Z" fill="#fff"/><path d="M44.873 19.948h1.641l.59-3.045.024-.116.034-.119.034-.116.046-.119.059-.116.07-.113.075-.108.096-.102.104-.09.114-.085.136-.08.151-.065.17-.053.185-.043.204-.031.228-.011h.145l.262-1.377-.163.012-.158.017-.145.025-.138.04-.13.042-.12.051-.117.06-.112.065-.104.073-.1.077-.092.085-.095.085-.087.09-.086.102-.09.097-.08.107.176-.968h-1.638l-1.09 5.729Z" stroke="#fff" stroke-width=".22" stroke-miterlimit="2.61"/><path fill-rule="evenodd" clip-rule="evenodd" d="M29.444 19.948h1.672l.559-3.045.024-.116.028-.113.028-.113.043-.105.047-.108.058-.102.068-.096.083-.09.093-.083.105-.079.126-.062.142-.06.164-.048.179-.042.197-.029.228-.014h.019l.021.003.031.006h.028l.03.005.023.006.018.006h.006l.006-.023.016-.062.024-.097.028-.119.043-.138.04-.15.053-.15.052-.15.047-.1.058-.102.059-.101.059-.091.052-.082.04-.063.028-.036.012-.017h-.006l-.025-.006-.027-.006-.04-.005h-.04l-.047-.006-.043-.006h-.04l-.18.012-.163.017-.15.025-.143.034-.132.043-.124.053-.11.054-.106.063-.099.07-.092.08-.086.079-.09.09-.086.094-.08.102-.09.105-.086.107.21-.968h-1.673l-1.089 5.729Z" fill="#fff"/><path d="M29.444 19.948h1.672l.559-3.045.024-.116.028-.113.028-.113.043-.105.047-.108.058-.102.068-.096.083-.09.093-.083.105-.079.126-.062.142-.06.164-.048.179-.042.197-.029.228-.014h.019l.021.003.031.006h.028l.03.005.023.006.018.006h.006l.006-.023.016-.062.024-.097.028-.119.043-.138.04-.15.053-.15.052-.15.047-.1.058-.102.059-.101.059-.091.052-.082.04-.063.028-.036.012-.017h-.006l-.025-.006-.027-.006-.04-.005h-.04l-.047-.006-.043-.006h-.04l-.18.012-.163.017-.15.025-.143.034-.132.043-.124.053-.11.054-.106.063-.099.07-.092.08-.086.079-.09.09-.086.094-.08.102-.09.105-.086.107.21-.968h-1.673l-1.089 5.729Z" stroke="#fff" stroke-width=".22" stroke-miterlimit="2.61"/><path fill-rule="evenodd" clip-rule="evenodd" d="M55.038 25.575v-.023l.047-.139.083-.122.099-.107.123-.085.139-.065.151-.037.163-.017.164.017.151.037.139.065.123.085.1.107.082.122.047.139v.023h-.17l-.037-.114-.056-.102-.077-.09-.092-.074-.111-.06-.13-.036-.133-.012-.132.012-.13.037-.11.059-.093.074-.078.09-.058.102-.034.114h-.17Z" fill="#FAB51D"/><path fill-rule="evenodd" clip-rule="evenodd" d="M55.553 25.575v-.187h.389l.065.008.046.011.04.023.031.026.022.03.012.04.006.049h-.117v-.029l-.006-.025-.012-.023-.016-.011-.018-.009-.028-.005-.03-.006h-.238v.108h-.145Zm-.53.115.015-.116h.17v.006l-.012.11h-.173Z" fill="#FAB51D"/><path fill-rule="evenodd" clip-rule="evenodd" d="M55.553 25.69v-.116h.146v.105h.145l.052-.008.04-.006.037-.011.028-.012.025-.014.009-.017.012-.028v-.008h.117l-.006.036-.012.031-.016.029-.024.02h-.553Zm.938 0-.012-.11v-.005h.17l.015.116h-.173Z" fill="#FAB51D"/><path fill-rule="evenodd" clip-rule="evenodd" d="M55.023 25.69v.018l.015.155.047.145.083.127.099.113.123.091.139.062.151.046.163.014.164-.014.151-.046.139-.062.123-.09.1-.114.082-.127.047-.145.015-.155v-.017h-.173v.017l-.012.127-.037.119-.056.102-.077.09-.092.074-.111.06-.13.037-.133.01-.132-.01-.13-.037-.11-.06-.093-.073-.078-.091-.058-.102-.034-.119-.012-.127v-.017h-.173Z" fill="#FAB51D"/><path fill-rule="evenodd" clip-rule="evenodd" d="M55.553 25.69v.312h.146v-.269h.145l.175.27h.114l-.172-.27H56l.04-.008.037-.012.028-.022h-.553Z" fill="#FAB51D"/></g><defs><clipPath id="a"><path fill="#fff" d="M0 0h58v32H0z"/></clipPath></defs></svg>