<svg width="71" height="58" fill="none" xmlns="http://www.w3.org/2000/svg"><g clip-path="url(#a)"><path d="M17.58 50.703v-2.89c0-1.089-.696-1.821-1.818-1.83-.59-.01-1.2.173-1.625.818-.32-.51-.822-.819-1.528-.819-.493 0-.977.145-1.354.684v-.568h-1.006v4.605h1.015V48.15c0-.8.445-1.224 1.132-1.224.687 0 1.006.434 1.006 1.214v2.563h1.016V48.15c0-.8.464-1.224 1.131-1.224.668 0 1.016.434 1.016 1.214v2.563h1.016Zm15.033-4.605h-1.645V44.7h-1.015v1.397h-.939v.915h.939v2.1c0 1.07.416 1.705 1.605 1.705.436 0 .939-.134 1.258-.356l-.29-.858c-.3.174-.63.26-.89.26-.503 0-.668-.308-.668-.77v-2.08h1.645v-.916Zm8.58-.116c-.58 0-.958.27-1.22.675v-.56h-.995v4.606h1.005V48.12c0-.761.33-1.185.987-1.185.203 0 .416.029.629.116l.31-.944a2.158 2.158 0 0 0-.716-.126Zm-12.972.482c-.484-.318-1.151-.482-1.886-.482-1.17 0-1.925.559-1.925 1.474 0 .752.56 1.214 1.596 1.359l.474.067c.551.077.813.222.813.482 0 .356-.368.558-1.055.558-.687 0-1.2-.221-1.538-.481l-.474.78c.552.405 1.248.597 2.002.597 1.335 0 2.11-.626 2.11-1.502 0-.81-.61-1.234-1.616-1.378l-.474-.068c-.436-.057-.784-.144-.784-.452 0-.337.33-.54.88-.54.59 0 1.161.222 1.442.395l.435-.81Zm26.944-.482c-.58 0-.957.27-1.218.675v-.56h-.997v4.606h1.006V48.12c0-.761.329-1.185.987-1.185.203 0 .416.029.629.116l.31-.944a2.158 2.158 0 0 0-.717-.126ZM42.203 48.4c0 1.397.977 2.418 2.467 2.418.697 0 1.16-.154 1.664-.549l-.484-.809c-.377.27-.774.414-1.209.414-.803-.01-1.393-.587-1.393-1.474 0-.886.59-1.464 1.393-1.474.435 0 .832.145 1.21.415l.483-.81c-.503-.395-.968-.549-1.664-.549-1.49 0-2.467 1.021-2.467 2.418Zm9.422 0v-2.302h-1.006v.559c-.32-.415-.803-.675-1.46-.675-1.297 0-2.313 1.012-2.313 2.418 0 1.407 1.016 2.418 2.312 2.418.658 0 1.142-.26 1.461-.674v.559h1.006V48.4Zm-3.743 0c0-.809.532-1.474 1.402-1.474.87 0 1.393.636 1.393 1.474 0 .839-.561 1.474-1.393 1.474s-1.402-.664-1.402-1.474Zm-12.14-2.418c-1.354 0-2.302.983-2.302 2.418 0 1.436.986 2.418 2.37 2.418.696 0 1.334-.173 1.895-.645l-.493-.742a2.21 2.21 0 0 1-1.344.482c-.649 0-1.239-.299-1.384-1.127h3.434c.01-.126.02-.25.02-.386-.01-1.435-.9-2.418-2.196-2.418Zm-.02.896c.649 0 1.064.405 1.17 1.118h-2.398c.106-.665.513-1.118 1.228-1.118ZM60.956 48.4v-4.152H59.95v2.409c-.32-.415-.803-.675-1.461-.675-1.296 0-2.312 1.012-2.312 2.418 0 1.407 1.016 2.418 2.312 2.418.658 0 1.141-.26 1.46-.674v.559h1.007V48.4Zm-3.744 0c0-.809.532-1.474 1.403-1.474.87 0 1.393.636 1.393 1.474 0 .839-.561 1.474-1.393 1.474S57.21 49.21 57.21 48.4Zm-33.967 0v-2.302h-1.006v.559c-.319-.415-.802-.675-1.46-.675-1.296 0-2.312 1.012-2.312 2.418 0 1.407 1.015 2.418 2.312 2.418.658 0 1.141-.26 1.46-.674v.559h1.006V48.4Zm-3.743 0c0-.809.532-1.474 1.402-1.474.871 0 1.393.636 1.393 1.474 0 .839-.56 1.474-1.393 1.474-.831 0-1.402-.664-1.402-1.474Zm43.127 1.633a.478.478 0 0 1 .334.13.489.489 0 0 1 .101.145.436.436 0 0 1-.101.5.445.445 0 0 1-.15.097.464.464 0 0 1-.368 0 .534.534 0 0 1-.15-.096.492.492 0 0 1-.101-.145.437.437 0 0 1 .101-.5.479.479 0 0 1 .334-.13Zm0 .814a.348.348 0 0 0 .252-.106.371.371 0 0 0 .106-.255.372.372 0 0 0-.218-.332.332.332 0 0 0-.14-.03.374.374 0 0 0-.256.106.374.374 0 0 0-.107.256.373.373 0 0 0 .106.255.376.376 0 0 0 .257.106Zm.03-.573a.19.19 0 0 1 .125.039.124.124 0 0 1 .043.1c0 .035-.01.063-.034.088a.165.165 0 0 1-.101.043l.14.159h-.111l-.13-.16h-.044v.16h-.092v-.424h.198l.005-.005Zm-.107.082v.116h.106s.044 0 .058-.015c.015-.01.02-.024.02-.043 0-.02-.005-.034-.02-.044a.104.104 0 0 0-.058-.014h-.106Zm-.547-14.97v-.56h.227v-.115h-.575v.115h.227v.56h.126-.005Zm1.117 0v-.675h-.174l-.203.462-.203-.462h-.174v.674h.126v-.506l.188.439h.13l.19-.439v.51h.125l-.005-.004Zm-29.169 3.347c.136.116.28.231.421.347a17.389 17.389 0 0 1-9.639 2.9c-9.615 0-17.411-7.765-17.411-17.341s7.8-17.336 17.416-17.336a17.39 17.39 0 0 1 9.639 2.9c-.14.115-.285.226-.42.346A18.657 18.657 0 0 0 27.5 24.644c0 5.4 2.351 10.539 6.457 14.094l-.005-.005Zm12.31-31.43a17.39 17.39 0 0 0-9.64 2.9c.14.115.285.226.42.346A18.65 18.65 0 0 1 43.5 24.644c0 5.404-2.35 10.539-6.452 14.094-.136.115-.28.23-.421.346a17.39 17.39 0 0 0 9.64 2.9c9.614 0 17.41-7.765 17.41-17.34 0-9.576-7.8-17.341-17.416-17.341ZM35.5 11.017c-.222.173-.445.356-.658.544-3.67 3.179-5.992 7.861-5.992 13.082 0 5.222 2.321 9.904 5.992 13.083.213.188.436.366.658.544.222-.178.445-.356.658-.544 3.67-3.179 5.992-7.861 5.992-13.082 0-5.222-2.321-9.904-5.992-13.083-.213-.188-.436-.366-.658-.544Z" fill="#fff"/></g><defs><clipPath id="a"><path fill="#fff" d="M0 0h71v58H0z"/></clipPath></defs></svg>