<svg width="24" height="24" fill="none" xmlns="http://www.w3.org/2000/svg"><rect x="1" y="1" width="22" height="22" rx="11" stroke="#fff" stroke-opacity=".4" stroke-width="2"/><path d="M10.969 14.026v-.124c.003-.575.056-1.033.158-1.373.106-.34.255-.613.447-.82a3.45 3.45 0 0 1 .703-.576c.19-.121.358-.253.507-.396a1.72 1.72 0 0 0 .359-.486 1.38 1.38 0 0 0 .13-.606 1.21 1.21 0 0 0-.172-.653 1.18 1.18 0 0 0-.466-.429 1.363 1.363 0 0 0-.647-.152c-.22 0-.43.05-.628.148a1.228 1.228 0 0 0-.489.438c-.127.194-.198.44-.214.739H9c.016-.604.158-1.109.428-1.516a2.547 2.547 0 0 1 1.08-.915c.45-.203.947-.305 1.49-.305.592 0 1.114.106 1.564.32.453.212.805.516 1.056.91.255.39.382.855.382 1.392 0 .362-.057.686-.172.972a2.38 2.38 0 0 1-.48.763 3.517 3.517 0 0 1-.74.595 3.177 3.177 0 0 0-.619.496 1.656 1.656 0 0 0-.354.605 2.857 2.857 0 0 0-.116.849v.124h-1.55Zm.81 2.974a.98.98 0 0 1-.722-.305 1.016 1.016 0 0 1-.302-.744c0-.286.1-.53.302-.734a.98.98 0 0 1 .722-.305c.276 0 .515.102.717.305a.997.997 0 0 1 .307.734 1.085 1.085 0 0 1-.517.91.96.96 0 0 1-.507.139Z" fill="#fff"/></svg>