<svg width="56" height="56" fill="none" xmlns="http://www.w3.org/2000/svg"><rect x="4.666" y="4.668" width="46.667" height="46.667" rx="14" fill="#fff"/><path d="M42.686 25.67H27.313c-.9 0-1.647-.53-1.647-1.167 0-.638.747-1.167 1.647-1.167h15.373c.9 0 1.647.529 1.647 1.167 0 .637-.747 1.166-1.647 1.166Zm-3.844 4.663h-7.686c-.45 0-.824-.529-.824-1.166 0-.638.373-1.167.824-1.167h7.686c.45 0 .823.529.823 1.167 0 .637-.373 1.166-.823 1.166ZM19.854 21h-4.726c-2.33 0-3.462 1.132-3.462 3.462v4.743c0 2.33 1.132 3.462 3.462 3.462h4.743c2.33 0 3.462-1.132 3.462-3.462v-4.743C23.316 22.132 22.184 21 19.854 21Z" fill="#9BE931"/></svg>