<svg width="56" height="56" fill="none" xmlns="http://www.w3.org/2000/svg"><path d="M48.883 9.636a9.95 9.95 0 0 0-2.52-2.52c-2.217-1.61-5.11-2.45-8.587-2.45H18.223c-.467 0-.934.023-1.377.07-7.653.49-12.18 5.46-12.18 13.487v19.553c0 3.477.84 6.37 2.45 8.587a9.95 9.95 0 0 0 2.52 2.52c1.913 1.4 4.34 2.216 7.21 2.403.443.023.91.047 1.377.047h19.553c8.493 0 13.557-5.064 13.557-13.557V18.223c0-3.477-.84-6.37-2.45-8.587Zm-5.134 11.13c0 .957-.793 1.75-1.75 1.75-.956 0-1.75-.793-1.75-1.75v-2.753c0-.747-.606-1.354-1.353-1.354h-9.147v22.68h4.154c.956 0 1.75.794 1.75 1.75 0 .957-.794 1.75-1.75 1.75H22.096c-.957 0-1.75-.793-1.75-1.75 0-.956.793-1.75 1.75-1.75h4.153V16.66h-9.146c-.747 0-1.354.607-1.354 1.354v2.753c0 .957-.793 1.75-1.75 1.75-.956 0-1.75-.793-1.75-1.75v-2.753a4.85 4.85 0 0 1 4.854-4.854h21.77a4.85 4.85 0 0 1 4.853 4.854v2.753h.023Z" fill="#fff"/></svg>