<svg width="56" height="56" fill="none" xmlns="http://www.w3.org/2000/svg"><path d="m6.02 44.358-.047.047c-.63-1.377-1.026-2.94-1.19-4.667a14.332 14.332 0 0 0 1.237 4.62ZM21 24.22a5.553 5.553 0 1 0 0-11.107 5.553 5.553 0 0 0 0 11.107Z" fill="#fff"/><path d="M37.776 4.668H18.223c-8.494 0-13.557 5.063-13.557 13.557v19.553c0 2.543.443 4.76 1.307 6.627 2.006 4.433 6.3 6.93 12.25 6.93h19.553c8.493 0 13.557-5.064 13.557-13.557V18.225c0-8.494-5.064-13.557-13.557-13.557Zm9.753 24.5c-1.82-1.563-4.76-1.563-6.58 0l-9.706 8.33c-1.82 1.563-4.76 1.563-6.58 0l-.794-.653c-1.656-1.447-4.293-1.587-6.16-.327l-8.726 5.857c-.514-1.307-.817-2.824-.817-4.597V18.225c0-6.58 3.477-10.057 10.057-10.057h19.553c6.58 0 10.057 3.477 10.057 10.057v11.2l-.304-.257Z" fill="#fff"/></svg>