<svg width="172" height="40" fill="none" xmlns="http://www.w3.org/2000/svg"><rect x="1" y="1" width="170" height="38" rx="19" stroke="#4EBDF5" stroke-opacity=".4" stroke-width="2"/><path d="M25.049 8.927c.3-.921 1.603-.921 1.902 0l1.968 6.056a1 1 0 0 0 .95.69h6.368c.969 0 1.372 1.24.588 1.81l-5.151 3.742a1 1 0 0 0-.364 1.118l1.968 6.056c.3.921-.755 1.688-1.539 1.118l-5.151-3.742a1 1 0 0 0-1.176 0l-5.151 3.742c-.784.57-1.838-.197-1.539-1.118l1.968-6.056a1 1 0 0 0-.364-1.118l-5.15-3.742c-.785-.57-.382-1.81.587-1.81h6.367a1 1 0 0 0 .951-.69l1.968-6.056Zm30 0c.3-.921 1.603-.921 1.902 0l1.968 6.056a1 1 0 0 0 .95.69h6.368c.969 0 1.372 1.24.588 1.81l-5.151 3.742a1 1 0 0 0-.364 1.118l1.968 6.056c.3.921-.755 1.688-1.539 1.118l-5.151-3.742a1 1 0 0 0-1.176 0l-5.151 3.742c-.784.57-1.838-.197-1.539-1.118l1.968-6.056a1 1 0 0 0-.364-1.118l-5.15-3.742c-.785-.57-.382-1.81.587-1.81h6.367a1 1 0 0 0 .951-.69l1.968-6.056Zm30 0c.3-.921 1.603-.921 1.902 0l1.968 6.056a1 1 0 0 0 .95.69h6.368c.969 0 1.372 1.24.588 1.81l-5.151 3.742a1 1 0 0 0-.364 1.118l1.968 6.056c.3.921-.755 1.688-1.539 1.118l-5.151-3.742a1 1 0 0 0-1.176 0l-5.151 3.742c-.784.57-1.838-.197-1.539-1.118l1.968-6.056a1 1 0 0 0-.364-1.118l-5.15-3.742c-.785-.57-.382-1.81.587-1.81h6.367a1 1 0 0 0 .951-.69l1.968-6.056Zm30 0c.299-.921 1.603-.921 1.902 0l1.968 6.056a1 1 0 0 0 .951.69h6.367c.969 0 1.372 1.24.588 1.81l-5.151 3.742a1 1 0 0 0-.364 1.118l1.968 6.056c.299.921-.755 1.688-1.539 1.118l-5.151-3.742a1 1 0 0 0-1.176 0l-5.151 3.742c-.784.57-1.838-.197-1.539-1.118l1.968-6.056a1 1 0 0 0-.364-1.118l-5.151-3.742c-.784-.57-.381-1.81.588-1.81h6.367a1 1 0 0 0 .951-.69l1.968-6.056Zm30 0c.299-.921 1.603-.921 1.902 0l1.968 6.056a1 1 0 0 0 .951.69h6.367c.969 0 1.372 1.24.588 1.81l-5.151 3.742a1 1 0 0 0-.364 1.118l1.968 6.056c.299.921-.755 1.688-1.539 1.118l-5.151-3.742a1 1 0 0 0-1.176 0l-5.151 3.742c-.784.57-1.838-.197-1.539-1.118l1.968-6.056a1 1 0 0 0-.364-1.118l-5.151-3.742c-.784-.57-.381-1.81.588-1.81h6.367a1 1 0 0 0 .951-.69l1.968-6.056Z" fill="#FFE030"/></svg>