<svg width="66" height="20" fill="none" xmlns="http://www.w3.org/2000/svg"><g clip-path="url(#a)" fill-rule="evenodd" clip-rule="evenodd" fill="#005597"><path d="m18.924 18.926 5.798-17.784h5.172l-5.798 17.784h-5.172ZM16.612 1.145l-4.654 7.54c-1.185 1.973-1.875 2.973-2.21 4.218h-.072c.082-1.582-.156-3.525-.175-4.621l-.515-7.137H.276l-.09.48c2.238 0 3.565 1.043 3.93 3.184l1.697 14.12h5.359L22.007 1.15h-5.399l.004-.004Zm40.23 17.781-.142-2.644h-6.458l-1.32 2.644h-5.615L53.49 1.173h6.894l1.723 17.753h-5.265ZM56.25 8.434c-.056-1.314-.104-3.098-.011-4.177h-.075c-.313.885-1.666 3.536-2.263 4.84l-1.924 3.9h4.534l-.265-4.559.004-.004ZM35.327 19.433c-3.65 0-6.074-1.08-7.808-2.04l2.464-3.501c1.555.808 2.775 1.742 5.579 1.742.902 0 1.77-.22 2.267-1.014.72-1.155-.168-1.78-2.185-2.845l-1-.603c-2.994-1.905-4.291-3.712-2.882-6.873.902-2.02 3.281-3.553 7.208-3.553 2.707 0 5.246 1.09 6.727 2.155l-2.834 3.091c-1.443-1.086-2.64-1.634-4.009-1.634-1.092 0-1.92.392-2.207.92-.54.992.175 1.668 1.749 2.58l1.185.701c3.636 2.134 4.505 4.372 3.591 6.464-1.57 3.601-4.639 4.406-7.849 4.406l.004.004ZM63.52 3.893h-.339V1.964h.787c.5 0 .757.163.757.555 0 .35-.231.493-.54.528l.58.846h-.383l-.537-.826h-.32v.826h-.005Zm.38-1.096c.254 0 .482-.025.482-.302 0-.233-.246-.26-.452-.26h-.41v.562h.38Zm-.01 1.839c-1.078 0-1.843-.75-1.843-1.742 0-1.048.85-1.742 1.843-1.742.991 0 1.83.694 1.83 1.742s-.85 1.742-1.83 1.742Zm0-3.182c-.81 0-1.444.59-1.444 1.44 0 .79.552 1.44 1.444 1.44.801 0 1.431-.587 1.431-1.44 0-.854-.63-1.44-1.431-1.44Z"/></g><defs><clipPath id="a"><path fill="#fff" transform="translate(0 .5)" d="M0 0h66v19H0z"/></clipPath></defs></svg>