<svg width="81" height="22" fill="none" xmlns="http://www.w3.org/2000/svg"><g clip-path="url(#a)"><path d="M.601.346h7.538c.685 0 2.74-.22 3.655 2.86.685 1.98 1.598 5.06 2.97 9.68h.456c1.37-4.84 2.513-8.14 2.97-9.68.913-3.08 3.197-2.86 4.11-2.86h7.082v21.12h-7.31V8.926h-.456l-3.883 12.54H12.25L8.367 8.926h-.685v12.54H.601M32.351.346h7.31v12.54h.685l4.797-10.34c.914-1.98 2.97-2.2 2.97-2.2h6.852v21.12h-7.31V8.926H47.2l-4.797 10.34c-.914 1.98-3.198 2.2-3.198 2.2h-6.853m32.436-6.38v6.38h-6.853v-11H80.32c-.914 2.64-4.112 4.62-7.767 4.62" fill="#0F754E"/><path d="M80.776 9.146c.914-3.96-1.827-8.8-7.766-8.8H57.478c.456 4.62 4.568 8.8 8.908 8.8" fill="url(#b)"/></g><defs><linearGradient id="b" x1="78.035" y1="-2.514" x2="59.762" y2="-2.514" gradientUnits="userSpaceOnUse"><stop stop-color="#1F5CD7"/><stop offset="1" stop-color="#02AEFF"/></linearGradient><clipPath id="a"><path fill="#fff" d="M0 0h81v22H0z"/></clipPath></defs></svg>