<svg width="81" height="22" fill="none" xmlns="http://www.w3.org/2000/svg"><g clip-path="url(#a)" fill="#fff"><path d="M.601.345H8.14c.685 0 2.741-.22 3.655 2.86.685 1.98 1.599 5.06 2.97 9.68h.456c1.37-4.84 2.513-8.14 2.97-9.68.913-3.08 3.197-2.86 4.111-2.86h7.081v21.12h-7.31V8.925h-.456l-3.883 12.54H12.25L8.367 8.925h-.685v12.54H.602M32.351.345h7.309v12.54h.685l4.797-10.34c.914-1.98 2.97-2.2 2.97-2.2h6.852v21.12h-7.31V8.925H47.2l-4.797 10.34c-.914 1.98-3.198 2.2-3.198 2.2h-6.852m32.435-6.38v6.38h-6.853v-11H80.32c-.914 2.64-4.112 4.62-7.767 4.62m8.223-5.939c.914-3.96-1.827-8.8-7.766-8.8H57.477c.457 4.62 4.569 8.8 8.909 8.8"/></g><defs><clipPath id="a"><path fill="#fff" d="M0 0h81v22H0z"/></clipPath></defs></svg>